<svg width="342" height="78" viewBox="0 0 342 78" fill="none" xmlns="http://www.w3.org/2000/svg">
<path d="M75.9565 37.4123C75.851 35.4475 75.5497 33.5343 75.0712 31.6928C74.786 30.5916 74.4372 29.5162 74.0288 28.4706C71.9779 23.2079 68.4334 18.6911 63.9167 15.4431C60.9562 13.3124 57.5777 11.7271 53.9278 10.8329C51.7077 10.2884 49.3877 10 47 10C44.6123 10 42.2923 10.2884 40.0722 10.8329C36.4223 11.7271 33.0437 13.3132 30.0833 15.4431C25.5666 18.6919 22.0221 23.2079 19.9712 28.4706C19.5636 29.5162 19.214 30.5916 18.9288 31.6928C18.4503 33.5343 18.149 35.4475 18.0435 37.4123C18.0145 37.9383 18 38.4675 18 39C18 39.5486 18.0153 40.0931 18.0459 40.6345C18.1514 42.542 18.4414 44.4012 18.899 46.1928C19.1801 47.2932 19.5241 48.3686 19.9277 49.415C21.9714 54.7269 25.5336 59.2847 30.0833 62.5569C33.0437 64.6867 36.4223 66.2729 40.0722 67.1671C42.2923 67.7116 44.6123 68 47 68C49.3877 68 51.7077 67.7116 53.9278 67.1671C57.5777 66.2729 60.9562 64.6876 63.9167 62.5569C68.4664 59.2847 72.0286 54.7269 74.0731 49.415C74.4767 48.3686 74.8199 47.2932 75.101 46.1928C75.5586 44.4012 75.8486 42.542 75.9541 40.6345C75.9847 40.0931 76 39.5486 76 39C76 38.4675 75.9855 37.9383 75.9565 37.4123Z" fill="#111827"/>
<path d="M38.3242 36.7643L45.9435 29.0447C46.5811 28.3988 46.5811 27.3518 45.9435 26.7059C45.306 26.06 44.2726 26.06 43.6351 26.7059L36.0157 34.4254C35.3782 35.0714 35.3782 36.1184 36.0157 36.7643C36.6533 37.4102 37.6867 37.4102 38.3242 36.7643Z" fill="white"/>
<path d="M56.3333 39.5715L48.714 47.291C48.0765 47.9369 48.0765 48.984 48.714 49.6299C49.3515 50.2758 50.3849 50.2758 51.0225 49.6299L58.6418 41.9103C59.2793 41.2644 59.2793 40.2174 58.6418 39.5715C58.0051 38.9256 56.9708 38.9256 56.3333 39.5715Z" fill="white"/>
<path d="M57.1994 25.9462L35.2655 48.1687C34.628 48.8146 34.628 49.8617 35.2655 50.5076C35.903 51.1535 36.9365 51.1535 37.574 50.5076L59.5079 28.2851C60.1454 27.6392 60.1454 26.5921 59.5079 25.9462C58.8703 25.3003 57.8369 25.3003 57.1994 25.9462Z" fill="white"/>
<path d="M92.9 23.7H100.15V57H92.9V23.7ZM107.289 31.25H114.189V35.25C116.222 32.1167 118.972 30.55 122.439 30.55C124.406 30.55 126.072 31.0167 127.439 31.95C128.839 32.85 129.856 34.15 130.489 35.85C131.656 34.0167 132.956 32.6833 134.389 31.85C135.856 30.9833 137.522 30.55 139.389 30.55C142.156 30.55 144.306 31.3833 145.839 33.05C147.406 34.6833 148.189 36.9667 148.189 39.9V57H141.139V41C141.139 39.6667 140.806 38.6333 140.139 37.9C139.506 37.1333 138.639 36.75 137.539 36.75C136.172 36.75 134.906 37.3167 133.739 38.45C132.572 39.5833 131.706 41.0333 131.139 42.8V57H124.089V41C124.089 39.7 123.756 38.6667 123.089 37.9C122.422 37.1333 121.539 36.75 120.439 36.75C119.206 36.75 118.039 37.2167 116.939 38.15C115.872 39.05 115.006 40.3333 114.339 42V57H107.289V31.25ZM162.151 57.75C159.485 57.75 157.368 56.6167 155.801 54.35C154.235 52.0833 153.451 49 153.451 45.1C153.451 40.3667 154.651 36.7667 157.051 34.3C159.451 31.8 162.901 30.55 167.401 30.55C169.935 30.55 172.901 30.95 176.301 31.75V57H169.601L169.751 52.9H169.551C168.685 54.4667 167.618 55.6667 166.351 56.5C165.118 57.3333 163.718 57.75 162.151 57.75ZM163.651 51.6C164.685 51.6 165.701 51.05 166.701 49.95C167.701 48.85 168.635 47.3833 169.501 45.55V37.15C168.435 36.85 167.368 36.7 166.301 36.7C164.301 36.7 162.785 37.3833 161.751 38.75C160.751 40.1167 160.251 42.1333 160.251 44.8C160.251 46.9 160.551 48.5667 161.151 49.8C161.751 51 162.585 51.6 163.651 51.6ZM269.959 58.7C268.559 58.7 267.342 58.1833 266.309 57.15C265.309 56.15 264.809 54.95 264.809 53.55C264.809 52.1167 265.309 50.9 266.309 49.9C267.342 48.8667 268.559 48.35 269.959 48.35C271.392 48.35 272.609 48.8667 273.609 49.9C274.609 50.9 275.109 52.1167 275.109 53.55C275.109 54.95 274.609 56.15 273.609 57.15C272.609 58.1833 271.392 58.7 269.959 58.7Z" fill="#111827"/>
<path d="M182.783 23.7C183.75 23.6667 185.583 23.65 188.283 23.65C191.017 23.65 192.867 23.6667 193.833 23.7C197.267 23.7667 199.967 24.6833 201.933 26.45C203.9 28.2167 204.883 30.6667 204.883 33.8C204.883 36.0333 204.383 38.0167 203.383 39.75C202.383 41.45 200.967 42.7667 199.133 43.7C197.333 44.6333 195.283 45.1 192.983 45.1H189.733V57H182.783V23.7ZM192.683 39.2C194.317 39.2 195.583 38.7333 196.483 37.8C197.417 36.8667 197.883 35.6 197.883 34C197.883 31.0667 196.267 29.6 193.033 29.6H189.733V39.2H192.683ZM216.741 57.75C214.074 57.75 211.958 56.6167 210.391 54.35C208.824 52.0833 208.041 49 208.041 45.1C208.041 40.3667 209.241 36.7667 211.641 34.3C214.041 31.8 217.491 30.55 221.991 30.55C224.524 30.55 227.491 30.95 230.891 31.75V57H224.191L224.341 52.9H224.141C223.274 54.4667 222.208 55.6667 220.941 56.5C219.708 57.3333 218.308 57.75 216.741 57.75ZM218.241 51.6C219.274 51.6 220.291 51.05 221.291 49.95C222.291 48.85 223.224 47.3833 224.091 45.55V37.15C223.024 36.85 221.958 36.7 220.891 36.7C218.891 36.7 217.374 37.3833 216.341 38.75C215.341 40.1167 214.841 42.1333 214.841 44.8C214.841 46.9 215.141 48.5667 215.741 49.8C216.341 51 217.174 51.6 218.241 51.6ZM241.359 68.2C239.826 68.2 238.226 67.8333 236.559 67.1L237.609 61.3C238.876 61.9333 239.942 62.25 240.809 62.25C241.842 62.25 242.609 61.9167 243.109 61.25C243.642 60.5833 244.209 59.4167 244.809 57.75L234.759 31.35L242.059 30.75L248.209 49.2L253.909 31.25H260.859C258.726 37.7167 256.476 44.0833 254.109 50.35C251.776 56.6167 249.959 60.9167 248.659 63.25C247.726 64.9167 246.676 66.15 245.509 66.95C244.376 67.7833 242.992 68.2 241.359 68.2Z" fill="#288484"/>
</svg>
