<svg width="1027" height="934" viewBox="0 0 1027 934" fill="none" xmlns="http://www.w3.org/2000/svg">
<g filter="url(#filter0_f_140_66)">
<rect x="236" y="306.403" width="602.313" height="394.232" rx="24" transform="rotate(-6.71252 236 306.403)" fill="#288484" fill-opacity="0.35"/>
<rect x="236" y="306.403" width="602.313" height="394.232" rx="24" transform="rotate(-6.71252 236 306.403)" fill="url(#paint0_linear_140_66)" fill-opacity="0.35"/>
<rect x="236" y="306.403" width="602.313" height="394.232" rx="24" transform="rotate(-6.71252 236 306.403)" fill="url(#paint1_linear_140_66)" fill-opacity="0.35"/>
<rect x="236" y="306.403" width="602.313" height="394.232" rx="24" transform="rotate(-6.71252 236 306.403)" fill="url(#paint2_linear_140_66)" fill-opacity="0.35" style="mix-blend-mode:darken"/>
<rect x="236" y="306.403" width="602.313" height="394.232" rx="24" transform="rotate(-6.71252 236 306.403)" fill="url(#paint3_linear_140_66)" fill-opacity="0.35"/>
</g>
<g filter="url(#filter1_d_140_66)">
<g clip-path="url(#clip0_140_66)">
<rect x="237.044" y="307.839" width="603" height="386" rx="15.7009" transform="rotate(-6.61454 237.044 307.839)" fill="#111827"/>
<circle cx="830.672" cy="576.029" r="84.7848" transform="rotate(-6.61454 830.672 576.029)" fill="#288484"/>
<path d="M267.138 338.317L270.723 337.901L279.546 355.094L284.185 336.34L287.77 335.924L281.573 360.261L278.724 360.591L267.138 338.317ZM265.505 338.506L268.915 338.111L271.311 353.6L272.209 361.347L268.208 361.811L265.505 338.506ZM285.993 336.13L289.418 335.733L292.121 359.038L288.103 359.504L287.205 351.757L285.993 336.13ZM305.867 353.924L304.91 345.665C304.838 345.046 304.664 344.525 304.388 344.103C304.112 343.681 303.73 343.374 303.243 343.181C302.766 342.988 302.187 342.931 301.504 343.01C300.874 343.083 300.342 343.253 299.908 343.519C299.474 343.786 299.15 344.116 298.936 344.508C298.722 344.901 298.642 345.326 298.695 345.785L294.853 346.231C294.774 345.548 294.863 344.867 295.119 344.188C295.376 343.51 295.79 342.883 296.361 342.309C296.933 341.734 297.639 341.252 298.481 340.862C299.322 340.473 300.287 340.215 301.376 340.089C302.678 339.938 303.855 340.023 304.909 340.344C305.974 340.664 306.845 341.233 307.524 342.052C308.213 342.859 308.633 343.924 308.787 345.247L309.68 352.946C309.771 353.736 309.907 354.439 310.087 355.057C310.276 355.662 310.504 356.182 310.77 356.616L310.8 356.872L306.846 357.33C306.617 356.935 306.412 356.424 306.231 355.796C306.059 355.156 305.938 354.532 305.867 353.924ZM305.609 346.8L305.918 349.181L303.149 349.502C302.434 349.585 301.812 349.728 301.284 349.93C300.755 350.121 300.324 350.365 299.99 350.664C299.657 350.962 299.421 351.303 299.282 351.687C299.142 352.07 299.099 352.492 299.153 352.951C299.206 353.409 299.361 353.818 299.619 354.178C299.876 354.527 300.22 354.784 300.65 354.951C301.091 355.116 301.605 355.164 302.191 355.096C302.981 355.005 303.651 354.765 304.201 354.377C304.76 353.977 305.183 353.522 305.47 353.013C305.756 352.493 305.884 352.019 305.856 351.589L307.303 353.157C307.226 353.609 307.062 354.104 306.81 354.642C306.559 355.179 306.209 355.706 305.761 356.223C305.322 356.728 304.773 357.165 304.112 357.534C303.463 357.901 302.69 358.137 301.794 358.241C300.663 358.372 299.628 358.265 298.691 357.919C297.752 357.563 296.987 357.03 296.396 356.32C295.804 355.599 295.452 354.748 295.338 353.766C295.231 352.848 295.308 352.018 295.568 351.274C295.837 350.518 296.28 349.861 296.897 349.303C297.524 348.743 298.314 348.284 299.267 347.925C300.219 347.555 301.325 347.297 302.584 347.151L305.609 346.8ZM323.349 350.664C323.305 350.28 323.168 349.944 322.94 349.657C322.711 349.359 322.31 349.114 321.736 348.921C321.172 348.726 320.356 348.583 319.285 348.491C318.344 348.395 317.473 348.252 316.673 348.064C315.882 347.864 315.19 347.592 314.599 347.25C314.008 346.908 313.531 346.476 313.168 345.956C312.805 345.436 312.581 344.813 312.497 344.087C312.415 343.383 312.493 342.698 312.729 342.033C312.965 341.367 313.344 340.761 313.864 340.214C314.385 339.667 315.04 339.207 315.829 338.835C316.63 338.461 317.542 338.214 318.566 338.095C320.017 337.927 321.289 338.028 322.381 338.399C323.482 338.758 324.359 339.322 325.01 340.09C325.66 340.847 326.045 341.743 326.166 342.778L322.308 343.225C322.255 342.767 322.088 342.353 321.807 341.986C321.536 341.606 321.157 341.32 320.67 341.128C320.181 340.925 319.59 340.864 318.897 340.944C318.235 341.021 317.698 341.192 317.285 341.456C316.882 341.708 316.593 342.012 316.418 342.367C316.253 342.722 316.194 343.096 316.24 343.491C316.273 343.779 316.357 344.034 316.491 344.257C316.634 344.467 316.85 344.653 317.139 344.814C317.427 344.965 317.81 345.093 318.287 345.2C318.775 345.306 319.38 345.393 320.102 345.46C321.457 345.584 322.635 345.81 323.635 346.137C324.645 346.453 325.446 346.922 326.037 347.546C326.627 348.159 326.982 348.983 327.102 350.018C327.191 350.786 327.108 351.509 326.851 352.188C326.604 352.855 326.198 353.459 325.634 354C325.068 354.531 324.368 354.974 323.533 355.33C322.709 355.685 321.764 355.925 320.697 356.049C319.128 356.23 317.768 356.107 316.615 355.678C315.461 355.239 314.55 354.615 313.883 353.805C313.226 352.984 312.842 352.098 312.732 351.149L316.461 350.716C316.587 351.426 316.85 351.974 317.252 352.36C317.663 352.734 318.146 352.987 318.702 353.117C319.267 353.235 319.838 353.261 320.414 353.194C321.108 353.114 321.679 352.955 322.128 352.72C322.575 352.473 322.903 352.175 323.111 351.827C323.318 351.468 323.397 351.08 323.349 350.664ZM336.978 336.285L337.305 339.102L327.541 340.234L327.215 337.417L336.978 336.285ZM329.54 332.849L333.397 332.401L335.342 349.176C335.404 349.709 335.527 350.111 335.709 350.382C335.902 350.641 336.142 350.802 336.431 350.866C336.719 350.93 337.05 350.94 337.424 350.897C337.69 350.866 337.945 350.82 338.186 350.76C338.428 350.7 338.622 350.645 338.768 350.595L339.125 353.539C338.816 353.672 338.452 353.8 338.034 353.925C337.627 354.048 337.151 354.141 336.607 354.204C335.721 354.306 334.919 354.243 334.2 354.012C333.48 353.771 332.886 353.316 332.419 352.645C331.952 351.975 331.65 351.048 331.513 349.863L329.54 332.849ZM349.636 352.693C348.355 352.841 347.173 352.767 346.09 352.471C345.016 352.163 344.072 351.673 343.259 350.999C342.456 350.324 341.803 349.497 341.3 348.517C340.797 347.537 340.477 346.455 340.34 345.271L340.266 344.631C340.109 343.275 340.164 342.025 340.431 340.88C340.698 339.736 341.139 338.733 341.753 337.872C342.366 337.001 343.128 336.302 344.04 335.774C344.952 335.247 345.969 334.918 347.089 334.788C348.327 334.644 349.434 334.727 350.411 335.035C351.387 335.344 352.224 335.842 352.92 336.529C353.625 337.204 354.187 338.042 354.606 339.042C355.036 340.041 355.323 341.165 355.467 342.414L355.659 344.062L342.278 345.614L341.957 342.845L351.528 341.735L351.493 341.431C351.391 340.74 351.177 340.105 350.85 339.526C350.534 338.947 350.099 338.5 349.543 338.186C348.988 337.871 348.283 337.764 347.429 337.863C346.789 337.937 346.234 338.142 345.765 338.478C345.305 338.801 344.939 339.238 344.668 339.789C344.397 340.34 344.212 340.988 344.115 341.735C344.027 342.47 344.035 343.285 344.139 344.181L344.213 344.822C344.301 345.579 344.484 346.272 344.763 346.899C345.05 347.515 345.425 348.039 345.886 348.472C346.347 348.905 346.882 349.227 347.49 349.438C348.097 349.638 348.769 349.695 349.505 349.61C350.434 349.502 351.239 349.219 351.921 348.762C352.604 348.304 353.172 347.703 353.626 346.958L355.887 348.691C355.577 349.279 355.152 349.858 354.613 350.429C354.072 350.989 353.387 351.474 352.559 351.883C351.741 352.292 350.767 352.562 349.636 352.693ZM361.786 336.75L363.412 350.771L359.554 351.218L357.546 333.9L361.227 333.473L361.786 336.75ZM366.688 332.726L367.072 336.315C366.833 336.3 366.573 336.297 366.293 336.308C366.024 336.318 365.756 336.338 365.489 336.369C364.827 336.446 364.257 336.609 363.778 336.859C363.297 337.099 362.907 337.414 362.606 337.806C362.315 338.186 362.107 338.632 361.982 339.144C361.858 339.656 361.815 340.218 361.853 340.83L360.981 340.996C360.854 339.907 360.844 338.886 360.95 337.933C361.056 336.98 361.281 336.127 361.626 335.373C361.982 334.618 362.463 334.005 363.068 333.535C363.683 333.064 364.424 332.778 365.288 332.677C365.523 332.65 365.776 332.643 366.048 332.654C366.33 332.665 366.544 332.689 366.688 332.726ZM377.562 346.34C378.192 346.267 378.743 346.079 379.216 345.775C379.698 345.46 380.068 345.06 380.326 344.576C380.594 344.09 380.71 343.553 380.674 342.962L384.307 342.541C384.416 343.663 384.203 344.721 383.67 345.713C383.136 346.705 382.372 347.534 381.379 348.201C380.384 348.857 379.247 349.259 377.966 349.408C376.643 349.561 375.465 349.471 374.431 349.136C373.396 348.791 372.507 348.256 371.763 347.531C371.019 346.807 370.422 345.941 369.969 344.933C369.528 343.925 369.238 342.823 369.1 341.628L369.035 341.067C368.896 339.872 368.926 338.733 369.125 337.65C369.333 336.556 369.716 335.57 370.275 334.695C370.833 333.819 371.577 333.1 372.506 332.538C373.435 331.965 374.555 331.603 375.868 331.451C377.255 331.29 378.504 331.426 379.614 331.86C380.723 332.283 381.633 332.95 382.344 333.863C383.065 334.763 383.511 335.858 383.682 337.147L380.049 337.568C379.942 336.931 379.715 336.374 379.368 335.895C379.03 335.404 378.587 335.034 378.039 334.784C377.501 334.533 376.88 334.448 376.176 334.529C375.397 334.62 374.77 334.855 374.295 335.234C373.819 335.603 373.468 336.076 373.243 336.654C373.017 337.221 372.879 337.848 372.829 338.535C372.788 339.21 372.809 339.905 372.892 340.62L372.957 341.18C373.04 341.895 373.179 342.582 373.374 343.241C373.57 343.899 373.842 344.479 374.192 344.979C374.552 345.467 375.006 345.841 375.555 346.102C376.103 346.352 376.772 346.432 377.562 346.34ZM397.294 343.322L396.336 335.063C396.264 334.444 396.09 333.923 395.814 333.501C395.538 333.079 395.157 332.772 394.669 332.58C394.193 332.386 393.613 332.329 392.93 332.408C392.3 332.481 391.769 332.651 391.335 332.918C390.9 333.184 390.576 333.514 390.362 333.906C390.148 334.299 390.068 334.724 390.121 335.183L386.28 335.629C386.201 334.946 386.289 334.265 386.546 333.586C386.802 332.908 387.216 332.281 387.788 331.707C388.359 331.132 389.066 330.65 389.907 330.261C390.749 329.871 391.714 329.613 392.802 329.487C394.104 329.336 395.282 329.421 396.336 329.742C397.4 330.062 398.272 330.632 398.951 331.45C399.639 332.257 400.06 333.322 400.213 334.646L401.106 342.344C401.198 343.134 401.333 343.838 401.513 344.455C401.702 345.06 401.93 345.58 402.197 346.014L402.226 346.27L398.273 346.728C398.043 346.333 397.838 345.822 397.657 345.194C397.485 344.554 397.364 343.93 397.294 343.322ZM397.036 336.198L397.344 338.579L394.575 338.901C393.86 338.983 393.239 339.126 392.711 339.328C392.181 339.519 391.75 339.763 391.417 340.062C391.084 340.36 390.848 340.701 390.708 341.085C390.569 341.468 390.526 341.89 390.579 342.349C390.632 342.807 390.788 343.217 391.046 343.576C391.302 343.925 391.646 344.182 392.076 344.349C392.517 344.514 393.031 344.562 393.618 344.494C394.407 344.403 395.077 344.163 395.627 343.775C396.186 343.375 396.609 342.92 396.896 342.411C397.182 341.891 397.311 341.417 397.283 340.987L398.73 342.555C398.652 343.008 398.488 343.502 398.237 344.04C397.986 344.577 397.636 345.104 397.187 345.621C396.749 346.126 396.199 346.563 395.539 346.932C394.889 347.299 394.116 347.535 393.22 347.639C392.089 347.77 391.055 347.663 390.117 347.317C389.178 346.961 388.413 346.428 387.823 345.718C387.231 344.997 386.878 344.146 386.764 343.164C386.658 342.246 386.734 341.416 386.994 340.672C387.264 339.916 387.706 339.259 388.323 338.701C388.95 338.142 389.74 337.682 390.694 337.323C391.646 336.953 392.751 336.695 394.01 336.549L397.036 336.198ZM407.851 331.408L409.477 345.429L405.62 345.876L403.611 328.558L407.293 328.131L407.851 331.408ZM412.754 327.384L413.138 330.973C412.898 330.958 412.638 330.955 412.358 330.966C412.089 330.976 411.821 330.996 411.554 331.027C410.893 331.104 410.322 331.267 409.843 331.517C409.362 331.757 408.972 332.073 408.671 332.464C408.38 332.844 408.172 333.29 408.048 333.802C407.923 334.314 407.88 334.876 407.919 335.488L407.046 335.654C406.92 334.565 406.909 333.545 407.015 332.592C407.121 331.638 407.346 330.785 407.692 330.031C408.047 329.276 408.528 328.664 409.133 328.193C409.749 327.722 410.489 327.436 411.353 327.336C411.588 327.308 411.841 327.301 412.113 327.312C412.395 327.323 412.609 327.347 412.754 327.384ZM427.02 339.761L424.585 318.761L428.458 318.312L431.309 342.897L427.804 343.304L427.02 339.761ZM415.186 336.186L415.147 335.85C414.995 334.537 415.011 333.324 415.195 332.211C415.378 331.086 415.718 330.101 416.215 329.254C416.71 328.396 417.355 327.71 418.15 327.196C418.943 326.672 419.868 326.348 420.925 326.226C421.971 326.105 422.912 326.201 423.748 326.515C424.585 326.829 425.325 327.332 425.967 328.026C426.609 328.708 427.156 329.553 427.608 330.561C428.059 331.557 428.427 332.682 428.713 333.936L428.837 335.009C428.842 336.262 428.738 337.421 428.526 338.483C428.314 339.546 427.974 340.483 427.506 341.295C427.038 342.106 426.427 342.761 425.674 343.259C424.931 343.756 424.032 344.066 422.975 344.188C421.93 344.31 420.96 344.2 420.066 343.861C419.183 343.52 418.402 342.988 417.724 342.267C417.045 341.545 416.49 340.669 416.056 339.638C415.622 338.596 415.332 337.445 415.186 336.186ZM419.004 335.403L419.043 335.739C419.135 336.528 419.29 337.257 419.507 337.923C419.736 338.589 420.035 339.165 420.405 339.652C420.774 340.129 421.221 340.488 421.747 340.73C422.282 340.96 422.896 341.034 423.59 340.954C424.465 340.852 425.163 340.577 425.684 340.127C426.205 339.677 426.588 339.108 426.832 338.42C427.086 337.72 427.225 336.958 427.248 336.134L426.912 333.237C426.775 332.614 426.574 332.043 426.308 331.522C426.053 331 425.736 330.556 425.359 330.189C424.979 329.811 424.532 329.538 424.015 329.371C423.507 329.192 422.923 329.141 422.261 329.218C421.557 329.299 420.977 329.518 420.521 329.874C420.064 330.229 419.706 330.687 419.447 331.247C419.198 331.806 419.039 332.441 418.97 333.152C418.901 333.863 418.913 334.613 419.004 335.403Z" fill="white"/>
<path d="M281.416 393.044L284.084 392.734C284.122 393.687 283.957 394.555 283.589 395.338C283.221 396.115 282.656 396.757 281.896 397.265C281.135 397.772 280.18 398.093 279.028 398.226C278.142 398.329 277.326 398.266 276.578 398.038C275.837 397.803 275.18 397.424 274.608 396.9C274.042 396.37 273.578 395.709 273.218 394.918C272.857 394.121 272.617 393.209 272.498 392.18L272.373 391.104C272.253 390.075 272.282 389.132 272.457 388.272C272.633 387.413 272.939 386.663 273.376 386.023C273.819 385.375 274.377 384.851 275.052 384.452C275.733 384.052 276.517 383.8 277.403 383.698C278.554 383.564 279.552 383.665 280.397 383.999C281.241 384.327 281.926 384.835 282.451 385.521C282.976 386.207 283.34 387.024 283.541 387.97L280.873 388.28C280.753 387.691 280.565 387.201 280.31 386.811C280.061 386.421 279.721 386.142 279.289 385.976C278.863 385.803 278.316 385.755 277.65 385.832C277.133 385.892 276.688 386.042 276.316 386.281C275.951 386.52 275.661 386.849 275.447 387.267C275.233 387.679 275.094 388.18 275.032 388.77C274.968 389.354 274.98 390.021 275.067 390.772L275.194 391.868C275.278 392.586 275.41 393.222 275.593 393.778C275.775 394.334 276.012 394.794 276.304 395.16C276.595 395.526 276.947 395.79 277.359 395.952C277.771 396.114 278.245 396.164 278.782 396.102C279.435 396.026 279.954 395.861 280.337 395.607C280.727 395.352 281.005 395.012 281.172 394.586C281.346 394.159 281.427 393.645 281.416 393.044ZM292.018 394.262L291.456 389.422C291.415 389.066 291.318 388.766 291.165 388.521C291.012 388.277 290.801 388.098 290.533 387.985C290.264 387.872 289.936 387.838 289.548 387.883C289.205 387.923 288.911 388.016 288.666 388.162C288.427 388.308 288.252 388.495 288.141 388.725C288.029 388.947 287.989 389.194 288.021 389.466L285.45 389.764C285.4 389.331 285.456 388.908 285.617 388.496C285.779 388.078 286.032 387.694 286.379 387.346C286.731 386.991 287.165 386.695 287.682 386.458C288.205 386.22 288.802 386.062 289.475 385.984C290.27 385.892 290.994 385.946 291.647 386.145C292.305 386.338 292.843 386.682 293.261 387.177C293.685 387.672 293.944 388.327 294.039 389.142L294.57 393.72C294.631 394.244 294.715 394.69 294.823 395.058C294.937 395.418 295.078 395.726 295.245 395.982L295.264 396.147L292.655 396.449C292.501 396.199 292.368 395.873 292.256 395.473C292.144 395.067 292.064 394.663 292.018 394.262ZM291.894 390.059L292.09 391.58L290.47 391.768C290.069 391.814 289.721 391.897 289.427 392.016C289.132 392.129 288.897 392.274 288.721 392.452C288.544 392.623 288.42 392.821 288.347 393.046C288.274 393.264 288.253 393.506 288.284 393.771C288.314 394.03 288.399 394.256 288.539 394.449C288.686 394.642 288.88 394.787 289.121 394.883C289.367 394.973 289.645 394.999 289.956 394.963C290.408 394.911 290.792 394.775 291.108 394.555C291.422 394.328 291.658 394.071 291.815 393.784C291.972 393.497 292.043 393.234 292.028 392.993L292.893 394.013C292.833 394.289 292.73 394.586 292.584 394.904C292.437 395.223 292.236 395.528 291.982 395.82C291.727 396.111 291.409 396.365 291.028 396.579C290.646 396.794 290.191 396.932 289.66 396.993C288.981 397.072 288.358 397.007 287.789 396.797C287.221 396.588 286.754 396.265 286.389 395.829C286.024 395.393 285.807 394.874 285.737 394.273C285.672 393.717 285.719 393.213 285.876 392.762C286.034 392.312 286.299 391.917 286.673 391.579C287.046 391.234 287.524 390.952 288.109 390.734C288.699 390.508 289.385 390.35 290.167 390.259L291.894 390.059ZM298.758 387.277L299.726 395.629L297.165 395.926L295.948 385.43L298.373 385.149L298.758 387.277ZM301.693 384.695L301.931 387.086C301.786 387.077 301.622 387.076 301.439 387.084C301.263 387.092 301.097 387.104 300.942 387.122C300.548 387.168 300.208 387.263 299.923 387.408C299.638 387.545 299.406 387.726 299.229 387.95C299.058 388.173 298.938 388.436 298.868 388.739C298.798 389.036 298.777 389.366 298.806 389.729L298.245 389.726C298.168 389.059 298.165 388.434 298.234 387.849C298.304 387.264 298.444 386.743 298.653 386.287C298.862 385.83 299.147 385.462 299.508 385.185C299.875 384.9 300.314 384.728 300.825 384.668C300.967 384.652 301.12 384.647 301.285 384.654C301.455 384.654 301.591 384.668 301.693 384.695ZM310.167 392.158L308.698 379.489L311.279 379.189L313.007 394.089L310.678 394.359L310.167 392.158ZM303.09 390.049L303.067 389.845C302.974 389.043 302.98 388.305 303.085 387.631C303.196 386.949 303.402 386.352 303.703 385.839C304.004 385.325 304.392 384.91 304.866 384.593C305.347 384.275 305.911 384.078 306.558 384.003C307.185 383.931 307.746 383.993 308.241 384.192C308.742 384.389 309.185 384.702 309.569 385.129C309.959 385.556 310.292 386.077 310.566 386.694C310.84 387.305 311.067 387.986 311.246 388.739L311.31 389.292C311.306 390.046 311.239 390.745 311.111 391.389C310.982 392.034 310.777 392.608 310.495 393.113C310.218 393.61 309.858 394.012 309.415 394.319C308.973 394.626 308.434 394.816 307.8 394.89C307.16 394.964 306.569 394.898 306.028 394.692C305.492 394.486 305.019 394.164 304.608 393.726C304.203 393.288 303.87 392.757 303.607 392.132C303.351 391.506 303.179 390.812 303.09 390.049ZM305.637 389.547L305.661 389.75C305.713 390.203 305.801 390.622 305.925 391.008C306.048 391.393 306.215 391.728 306.425 392.012C306.634 392.289 306.884 392.496 307.175 392.632C307.472 392.768 307.819 392.813 308.213 392.768C308.717 392.709 309.119 392.551 309.416 392.294C309.72 392.029 309.94 391.692 310.076 391.283C310.211 390.868 310.276 390.411 310.271 389.914L310.094 388.391C310.024 388.006 309.914 387.655 309.766 387.338C309.624 387.02 309.442 386.753 309.221 386.536C309.005 386.318 308.751 386.158 308.457 386.054C308.163 385.951 307.825 385.921 307.444 385.965C307.049 386.011 306.723 386.137 306.465 386.344C306.207 386.545 306.008 386.807 305.868 387.131C305.729 387.455 305.641 387.823 305.603 388.233C305.572 388.643 305.583 389.081 305.637 389.547ZM321.261 378.032L322.989 392.932L320.418 393.23L318.69 378.33L321.261 378.032ZM326.932 381.837L328.149 392.333L325.579 392.632L324.361 382.136L326.932 381.837ZM323.868 379.41C323.824 379.029 323.917 378.697 324.146 378.415C324.382 378.132 324.723 377.965 325.169 377.913C325.616 377.861 325.983 377.946 326.271 378.168C326.565 378.39 326.734 378.691 326.779 379.073C326.822 379.448 326.726 379.777 326.49 380.06C326.261 380.342 325.923 380.509 325.477 380.561C325.03 380.613 324.66 380.528 324.366 380.306C324.078 380.084 323.912 379.786 323.868 379.41ZM332.178 383.412L333.145 391.754L330.584 392.051L329.367 381.555L331.782 381.275L332.178 383.412ZM332.114 386.172L331.329 386.263C331.244 385.532 331.253 384.849 331.356 384.215C331.466 383.579 331.67 383.015 331.966 382.522C332.262 382.022 332.651 381.617 333.133 381.305C333.621 380.993 334.204 380.797 334.884 380.719C335.356 380.664 335.797 380.685 336.208 380.781C336.618 380.871 336.983 381.049 337.302 381.313C337.627 381.571 337.894 381.926 338.104 382.38C338.313 382.828 338.456 383.378 338.532 384.032L339.344 391.035L336.783 391.332L336.001 384.59C335.944 384.099 335.828 383.722 335.654 383.461C335.486 383.198 335.266 383.027 334.994 382.947C334.722 382.861 334.405 382.839 334.043 382.881C333.642 382.927 333.305 383.048 333.033 383.244C332.767 383.432 332.556 383.676 332.4 383.976C332.252 384.275 332.153 384.611 332.104 384.983C332.062 385.355 332.066 385.751 332.114 386.172ZM338.442 384.956L337.407 385.273C337.337 384.612 337.356 383.984 337.464 383.388C337.571 382.786 337.768 382.249 338.054 381.777C338.346 381.297 338.729 380.905 339.205 380.601C339.687 380.29 340.261 380.095 340.927 380.018C341.444 379.958 341.919 379.978 342.35 380.079C342.787 380.173 343.172 380.361 343.506 380.643C343.84 380.919 344.113 381.297 344.326 381.777C344.545 382.256 344.697 382.855 344.78 383.572L345.562 390.314L342.981 390.614L342.199 383.862C342.139 383.351 342.023 382.968 341.849 382.713C341.682 382.457 341.463 382.292 341.192 382.219C340.921 382.139 340.61 382.119 340.261 382.16C339.905 382.201 339.603 382.305 339.353 382.471C339.11 382.631 338.911 382.837 338.757 383.091C338.609 383.344 338.508 383.631 338.454 383.952C338.405 384.266 338.401 384.6 338.442 384.956ZM349.36 379.237L350.577 389.733L348.006 390.031L346.789 379.535L349.36 379.237ZM346.296 376.81C346.252 376.428 346.345 376.096 346.574 375.814C346.81 375.531 347.151 375.364 347.597 375.312C348.044 375.26 348.411 375.346 348.699 375.568C348.993 375.789 349.162 376.091 349.207 376.472C349.25 376.847 349.154 377.176 348.918 377.459C348.688 377.742 348.351 377.909 347.904 377.96C347.458 378.012 347.088 377.927 346.793 377.706C346.506 377.483 346.34 377.185 346.296 376.81ZM356.771 378.377L356.985 380.22L350.971 380.918L350.757 379.075L356.771 378.377ZM352.068 376.308L354.639 376.009L355.804 386.059C355.84 386.37 355.91 386.604 356.013 386.763C356.117 386.921 356.256 387.02 356.431 387.058C356.606 387.097 356.81 387.103 357.043 387.076C357.211 387.056 357.365 387.029 357.505 386.993C357.645 386.957 357.762 386.923 357.857 386.893L358.089 388.812C357.884 388.908 357.649 388.995 357.382 389.071C357.122 389.147 356.824 389.205 356.488 389.244C355.912 389.311 355.397 389.272 354.941 389.128C354.484 388.978 354.111 388.697 353.821 388.285C353.53 387.867 353.342 387.292 353.257 386.561L352.068 376.308Z" fill="#288484"/>
<path d="M295.311 503.635C295.272 503.296 295.184 502.998 295.048 502.744C294.919 502.48 294.709 502.255 294.417 502.067C294.132 501.871 293.739 501.696 293.237 501.541C292.743 501.377 292.111 501.221 291.34 501.073C290.485 500.909 289.684 500.707 288.935 500.467C288.186 500.226 287.516 499.923 286.924 499.557C286.341 499.19 285.868 498.745 285.504 498.222C285.139 497.691 284.914 497.054 284.827 496.31C284.743 495.582 284.82 494.902 285.058 494.268C285.304 493.633 285.689 493.068 286.213 492.573C286.736 492.07 287.372 491.656 288.121 491.332C288.878 491.007 289.73 490.789 290.675 490.679C291.985 490.528 293.144 490.635 294.154 491.001C295.171 491.367 295.99 491.927 296.61 492.683C297.23 493.438 297.599 494.325 297.717 495.344L294.395 495.729C294.331 495.179 294.157 494.708 293.874 494.315C293.599 493.921 293.213 493.629 292.716 493.441C292.227 493.252 291.631 493.198 290.928 493.28C290.249 493.359 289.695 493.525 289.265 493.78C288.844 494.034 288.541 494.347 288.354 494.721C288.177 495.094 288.112 495.495 288.162 495.923C288.2 496.247 288.31 496.529 288.494 496.77C288.676 497.002 288.934 497.214 289.268 497.405C289.6 497.588 290.004 497.75 290.479 497.891C290.962 498.024 291.517 498.148 292.145 498.263C293.148 498.442 294.035 498.667 294.804 498.938C295.58 499.209 296.238 499.542 296.775 499.938C297.321 500.334 297.748 500.801 298.056 501.338C298.372 501.875 298.572 502.503 298.655 503.223C298.743 503.983 298.673 504.679 298.443 505.312C298.213 505.945 297.844 506.504 297.335 506.989C296.826 507.474 296.192 507.871 295.433 508.18C294.682 508.488 293.826 508.698 292.864 508.81C292.007 508.909 291.145 508.894 290.278 508.766C289.418 508.628 288.622 508.368 287.89 507.986C287.156 507.596 286.546 507.068 286.059 506.404C285.572 505.731 285.272 504.914 285.161 503.952L288.507 503.564C288.572 504.122 288.716 504.588 288.94 504.964C289.171 505.33 289.467 505.619 289.827 505.832C290.195 506.035 290.612 506.167 291.077 506.227C291.543 506.288 292.039 506.288 292.564 506.227C293.243 506.148 293.79 505.991 294.205 505.754C294.627 505.509 294.928 505.203 295.107 504.838C295.294 504.473 295.362 504.072 295.311 503.635ZM306.205 493.72L306.472 496.024L298.954 496.896L298.687 494.592L306.205 493.72ZM300.326 491.133L303.539 490.761L304.996 503.323C305.041 503.711 305.128 504.004 305.257 504.202C305.387 504.4 305.561 504.523 305.779 504.572C305.998 504.62 306.253 504.627 306.544 504.594C306.754 504.569 306.947 504.535 307.122 504.49C307.297 504.445 307.443 504.403 307.562 504.365L307.852 506.764C307.596 506.884 307.301 506.992 306.968 507.088C306.643 507.183 306.271 507.255 305.85 507.304C305.131 507.387 304.486 507.339 303.917 507.159C303.346 506.972 302.879 506.62 302.516 506.105C302.153 505.582 301.918 504.864 301.812 503.95L300.326 491.133ZM315.781 506.152C314.787 506.268 313.875 506.209 313.045 505.978C312.216 505.746 311.489 505.376 310.864 504.867C310.247 504.349 309.744 503.723 309.356 502.989C308.975 502.247 308.733 501.431 308.63 500.542L308.574 500.057C308.457 499.047 308.496 498.112 308.691 497.254C308.886 496.388 309.215 495.624 309.679 494.964C310.143 494.304 310.729 493.769 311.435 493.36C312.141 492.95 312.943 492.693 313.84 492.589C314.77 492.482 315.608 492.544 316.356 492.777C317.103 493.001 317.748 493.369 318.291 493.88C318.833 494.39 319.272 495.028 319.606 495.792C319.94 496.548 320.162 497.403 320.272 498.357L320.428 499.702L310.146 500.895L309.89 498.688L317.02 497.861L316.992 497.619C316.916 497.111 316.765 496.658 316.539 496.258C316.311 495.85 315.997 495.542 315.596 495.335C315.194 495.119 314.698 495.046 314.108 495.114C313.631 495.17 313.227 495.323 312.896 495.574C312.572 495.817 312.314 496.142 312.124 496.549C311.941 496.947 311.823 497.411 311.769 497.942C311.716 498.472 311.726 499.053 311.799 499.683L311.856 500.168C311.919 500.718 312.051 501.219 312.251 501.671C312.459 502.122 312.729 502.504 313.06 502.818C313.398 503.123 313.785 503.348 314.22 503.495C314.662 503.632 315.149 503.669 315.683 503.608C316.354 503.53 316.945 503.33 317.457 503.009C317.976 502.678 318.407 502.231 318.751 501.667L320.558 503.153C320.33 503.589 320.003 504.02 319.578 504.446C319.16 504.872 318.637 505.239 318.01 505.55C317.381 505.852 316.638 506.053 315.781 506.152ZM327.418 504.557L324.193 504.931L322.531 490.598C322.417 489.612 322.51 488.762 322.813 488.047C323.114 487.323 323.596 486.747 324.259 486.318C324.922 485.889 325.73 485.619 326.684 485.508C326.999 485.472 327.301 485.457 327.588 485.465C327.884 485.472 328.178 485.495 328.469 485.535L328.691 487.979C328.533 487.957 328.36 487.948 328.172 487.953C327.992 487.958 327.793 487.973 327.575 487.998C327.138 488.049 326.776 488.169 326.486 488.358C326.197 488.547 325.989 488.801 325.862 489.118C325.742 489.427 325.707 489.796 325.756 490.224L327.418 504.557ZM328.552 491.129L328.82 493.433L320.962 494.344L320.695 492.04L328.552 491.129ZM338.954 500.393L338.252 494.342C338.201 493.898 338.079 493.522 337.888 493.217C337.697 492.911 337.434 492.688 337.098 492.547C336.762 492.405 336.352 492.363 335.866 492.419C335.438 492.469 335.071 492.585 334.764 492.768C334.466 492.95 334.247 493.184 334.108 493.471C333.968 493.749 333.918 494.058 333.958 494.398L330.744 494.77C330.682 494.229 330.751 493.7 330.954 493.185C331.155 492.662 331.472 492.183 331.905 491.748C332.345 491.304 332.888 490.933 333.534 490.637C334.188 490.34 334.935 490.143 335.776 490.046C336.77 489.93 337.675 489.997 338.49 490.247C339.313 490.487 339.985 490.917 340.508 491.537C341.038 492.155 341.362 492.974 341.481 493.992L342.144 499.716C342.22 500.371 342.326 500.928 342.461 501.387C342.603 501.838 342.779 502.223 342.988 502.543L343.012 502.749L339.75 503.127C339.558 502.813 339.392 502.407 339.252 501.907C339.112 501.399 339.012 500.894 338.954 500.393ZM338.799 495.139L339.044 497.04L337.019 497.275C336.518 497.333 336.084 497.436 335.716 497.586C335.347 497.727 335.053 497.908 334.833 498.13C334.612 498.344 334.456 498.592 334.366 498.873C334.275 499.145 334.248 499.448 334.287 499.779C334.324 500.102 334.431 500.385 334.606 500.627C334.79 500.868 335.032 501.048 335.333 501.169C335.641 501.281 335.989 501.314 336.377 501.269C336.943 501.204 337.422 501.033 337.817 500.758C338.21 500.475 338.504 500.154 338.7 499.796C338.896 499.437 338.985 499.107 338.967 498.806L340.048 500.082C339.974 500.426 339.845 500.798 339.661 501.196C339.478 501.594 339.228 501.975 338.909 502.34C338.591 502.704 338.194 503.021 337.717 503.289C337.24 503.557 336.67 503.73 336.007 503.807C335.158 503.905 334.379 503.824 333.669 503.562C332.958 503.3 332.375 502.897 331.918 502.352C331.462 501.807 331.19 501.158 331.103 500.406C331.022 499.711 331.08 499.082 331.277 498.518C331.474 497.955 331.806 497.461 332.273 497.039C332.739 496.608 333.337 496.256 334.068 495.983C334.805 495.7 335.663 495.503 336.641 495.389L338.799 495.139ZM347.333 491.79L348.529 502.109L345.328 502.48L343.807 489.36L346.814 489.011L347.333 491.79ZM347.205 495.135L346.259 495.245C346.156 494.29 346.185 493.41 346.346 492.605C346.506 491.8 346.781 491.092 347.169 490.482C347.565 489.871 348.061 489.379 348.657 489.007C349.253 488.634 349.938 488.403 350.715 488.313C351.345 488.24 351.925 488.263 352.455 488.382C352.985 488.501 353.454 488.733 353.863 489.079C354.28 489.424 354.622 489.9 354.889 490.508C355.163 491.107 355.354 491.863 355.46 492.777L356.435 501.192L353.21 501.566L352.231 493.127C352.162 492.528 352.018 492.066 351.8 491.739C351.59 491.411 351.311 491.193 350.962 491.086C350.622 490.978 350.214 490.952 349.737 491.007C349.244 491.065 348.823 491.216 348.474 491.461C348.133 491.697 347.857 492.004 347.647 492.38C347.445 492.756 347.305 493.178 347.228 493.645C347.152 494.113 347.144 494.61 347.205 495.135ZM361.134 487.351L362.656 500.471L359.443 500.843L357.921 487.723L361.134 487.351ZM357.305 484.317C357.25 483.84 357.365 483.425 357.652 483.073C357.947 482.719 358.373 482.51 358.931 482.445C359.489 482.38 359.948 482.487 360.308 482.765C360.676 483.041 360.887 483.418 360.943 483.895C360.997 484.364 360.877 484.775 360.582 485.129C360.295 485.482 359.873 485.691 359.315 485.755C358.757 485.82 358.294 485.714 357.926 485.437C357.566 485.159 357.359 484.786 357.305 484.317ZM379.442 495.698L377.606 479.862L380.831 479.488L382.991 498.113L380.081 498.45L379.442 495.698ZM370.595 493.062L370.566 492.807C370.45 491.805 370.457 490.882 370.589 490.039C370.728 489.188 370.985 488.441 371.362 487.799C371.738 487.158 372.222 486.638 372.815 486.242C373.417 485.845 374.121 485.599 374.93 485.505C375.714 485.414 376.415 485.493 377.034 485.741C377.66 485.987 378.214 486.378 378.693 486.912C379.181 487.445 379.597 488.098 379.94 488.869C380.283 489.632 380.566 490.484 380.79 491.425L380.87 492.116C380.865 493.059 380.782 493.933 380.621 494.738C380.46 495.543 380.204 496.261 379.851 496.892C379.505 497.513 379.055 498.016 378.502 498.4C377.948 498.784 377.275 499.021 376.483 499.113C375.683 499.206 374.944 499.124 374.267 498.866C373.598 498.608 373.007 498.206 372.493 497.659C371.987 497.111 371.57 496.447 371.242 495.666C370.921 494.884 370.706 494.016 370.595 493.062ZM373.779 492.434L373.809 492.689C373.874 493.255 373.984 493.779 374.139 494.261C374.293 494.743 374.501 495.161 374.763 495.515C375.025 495.862 375.337 496.121 375.701 496.291C376.073 496.461 376.506 496.518 376.999 496.46C377.629 496.387 378.131 496.19 378.503 495.868C378.883 495.537 379.157 495.116 379.328 494.605C379.497 494.086 379.578 493.515 379.571 492.893L379.351 490.99C379.262 490.508 379.125 490.069 378.94 489.673C378.763 489.276 378.536 488.942 378.258 488.671C377.989 488.399 377.671 488.198 377.304 488.069C376.936 487.939 376.514 487.902 376.037 487.957C375.544 488.015 375.137 488.173 374.814 488.431C374.491 488.682 374.242 489.009 374.068 489.415C373.894 489.82 373.783 490.279 373.736 490.793C373.698 491.305 373.712 491.852 373.779 492.434ZM391.81 497.336C390.816 497.451 389.904 497.393 389.074 497.162C388.244 496.93 387.517 496.56 386.893 496.05C386.276 495.532 385.773 494.906 385.385 494.173C385.004 493.431 384.762 492.615 384.659 491.726L384.603 491.241C384.485 490.23 384.524 489.296 384.72 488.438C384.914 487.571 385.244 486.808 385.708 486.148C386.172 485.488 386.757 484.953 387.463 484.543C388.17 484.134 388.971 483.877 389.869 483.773C390.798 483.665 391.637 483.728 392.385 483.96C393.132 484.185 393.777 484.553 394.319 485.063C394.862 485.574 395.3 486.211 395.635 486.975C395.968 487.731 396.19 488.586 396.301 489.54L396.457 490.886L386.174 492.078L385.918 489.872L393.048 489.045L393.02 488.802C392.945 488.295 392.794 487.841 392.568 487.442C392.34 487.034 392.026 486.726 391.625 486.519C391.223 486.303 390.727 486.229 390.137 486.298C389.66 486.353 389.256 486.507 388.924 486.758C388.6 487 388.343 487.325 388.153 487.732C387.969 488.13 387.851 488.595 387.798 489.125C387.745 489.656 387.755 490.236 387.828 490.867L387.884 491.352C387.948 491.901 388.08 492.402 388.28 492.854C388.488 493.305 388.757 493.688 389.089 494.002C389.427 494.307 389.814 494.532 390.248 494.678C390.69 494.815 391.178 494.853 391.712 494.791C392.383 494.713 392.974 494.514 393.486 494.192C394.004 493.862 394.436 493.414 394.78 492.85L396.587 494.337C396.359 494.773 396.032 495.204 395.606 495.63C395.188 496.055 394.666 496.423 394.038 496.733C393.41 497.036 392.667 497.237 391.81 497.336ZM405.086 477.658L407.972 477.323L414.339 490.054L417.612 476.206L420.51 475.87L415.997 494.285L413.681 494.554L405.086 477.658ZM403.631 477.827L406.456 477.499L408.381 489.651L409.013 495.095L405.678 495.482L403.631 477.827ZM419.128 476.03L421.965 475.701L424.012 493.356L420.678 493.743L420.046 488.298L419.128 476.03ZM433.086 492.549C432.092 492.665 431.18 492.607 430.35 492.375C429.52 492.144 428.793 491.773 428.169 491.264C427.552 490.746 427.049 490.12 426.661 489.387C426.28 488.644 426.038 487.829 425.935 486.939L425.879 486.454C425.761 485.444 425.801 484.509 425.996 483.651C426.19 482.785 426.52 482.022 426.984 481.361C427.448 480.701 428.033 480.167 428.74 479.757C429.446 479.347 430.248 479.091 431.145 478.987C432.074 478.879 432.913 478.941 433.661 479.174C434.408 479.399 435.053 479.766 435.596 480.277C436.138 480.787 436.577 481.425 436.911 482.189C437.244 482.945 437.466 483.8 437.577 484.754L437.733 486.1L427.45 487.292L427.195 485.085L434.325 484.258L434.296 484.016C434.221 483.508 434.07 483.055 433.844 482.655C433.616 482.247 433.302 481.94 432.901 481.732C432.499 481.517 432.003 481.443 431.413 481.511C430.936 481.567 430.532 481.72 430.201 481.972C429.876 482.214 429.619 482.539 429.429 482.946C429.246 483.344 429.127 483.808 429.074 484.339C429.021 484.869 429.031 485.45 429.104 486.08L429.16 486.565C429.224 487.115 429.356 487.616 429.556 488.068C429.764 488.519 430.033 488.901 430.365 489.215C430.703 489.52 431.09 489.746 431.525 489.892C431.967 490.029 432.454 490.067 432.988 490.005C433.659 489.927 434.25 489.727 434.762 489.406C435.28 489.075 435.712 488.628 436.056 488.064L437.863 489.55C437.635 489.986 437.308 490.417 436.882 490.844C436.465 491.269 435.942 491.637 435.314 491.947C434.686 492.249 433.943 492.45 433.086 492.549ZM442.472 480.758L443.668 491.077L440.467 491.448L438.946 478.328L441.953 477.979L442.472 480.758ZM442.343 484.103L441.398 484.212C441.295 483.258 441.324 482.378 441.485 481.572C441.645 480.767 441.92 480.06 442.308 479.449C442.704 478.838 443.2 478.346 443.796 477.974C444.391 477.602 445.077 477.371 445.853 477.281C446.484 477.208 447.064 477.231 447.594 477.349C448.124 477.468 448.593 477.701 449.002 478.046C449.419 478.391 449.761 478.868 450.028 479.476C450.302 480.075 450.492 480.831 450.598 481.745L451.574 490.16L448.349 490.534L447.37 482.094C447.301 481.496 447.157 481.033 446.939 480.707C446.729 480.379 446.45 480.161 446.101 480.054C445.761 479.946 445.352 479.92 444.875 479.975C444.382 480.032 443.962 480.183 443.613 480.429C443.272 480.665 442.996 480.971 442.786 481.348C442.584 481.724 442.444 482.145 442.367 482.613C442.29 483.081 442.282 483.577 442.343 484.103ZM460.321 489.391C459.326 489.507 458.414 489.449 457.585 489.217C456.755 488.986 456.028 488.615 455.404 488.106C454.786 487.588 454.284 486.962 453.896 486.229C453.515 485.486 453.273 484.67 453.169 483.781L453.113 483.296C452.996 482.286 453.035 481.351 453.23 480.493C453.425 479.627 453.754 478.863 454.218 478.203C454.683 477.543 455.268 477.008 455.974 476.599C456.68 476.189 457.482 475.932 458.379 475.828C459.309 475.721 460.148 475.783 460.896 476.016C461.643 476.241 462.287 476.608 462.83 477.119C463.373 477.629 463.811 478.267 464.145 479.031C464.479 479.787 464.701 480.642 464.812 481.596L464.968 482.942L454.685 484.134L454.429 481.927L461.559 481.1L461.531 480.858C461.456 480.35 461.305 479.897 461.078 479.497C460.851 479.089 460.536 478.782 460.135 478.574C459.734 478.358 459.238 478.285 458.648 478.353C458.171 478.409 457.766 478.562 457.435 478.813C457.111 479.056 456.854 479.381 456.663 479.788C456.48 480.186 456.362 480.65 456.309 481.181C456.256 481.711 456.265 482.292 456.339 482.922L456.395 483.407C456.459 483.957 456.59 484.458 456.79 484.91C456.998 485.361 457.268 485.743 457.599 486.057C457.938 486.362 458.324 486.587 458.759 486.734C459.201 486.871 459.689 486.909 460.222 486.847C460.893 486.769 461.485 486.569 461.996 486.248C462.515 485.917 462.946 485.47 463.291 484.906L465.097 486.392C464.869 486.828 464.543 487.259 464.117 487.685C463.699 488.111 463.176 488.478 462.549 488.789C461.92 489.091 461.178 489.292 460.321 489.391ZM477.752 484.568L478.045 487.09L468.174 488.235L467.882 485.713L477.752 484.568ZM476.515 475.913L469.375 488.096L467.265 488.34L467.036 486.364L474.135 474.247L476.293 473.997L476.515 475.913ZM475.117 474.133L475.411 476.668L466.207 477.735L465.913 475.201L475.117 474.133ZM486.052 486.408C485.057 486.523 484.145 486.465 483.316 486.233C482.486 486.002 481.759 485.631 481.135 485.122C480.517 484.604 480.015 483.978 479.626 483.245C479.245 482.502 479.003 481.687 478.9 480.797L478.844 480.312C478.727 479.302 478.766 478.368 478.961 477.509C479.156 476.643 479.485 475.88 479.949 475.22C480.414 474.559 480.999 474.025 481.705 473.615C482.411 473.205 483.213 472.949 484.11 472.845C485.04 472.737 485.879 472.799 486.627 473.032C487.374 473.257 488.018 473.624 488.561 474.135C489.103 474.645 489.542 475.283 489.876 476.047C490.21 476.803 490.432 477.658 490.542 478.612L490.699 479.958L480.416 481.15L480.16 478.943L487.29 478.116L487.262 477.874C487.187 477.367 487.036 476.913 486.809 476.513C486.582 476.105 486.267 475.798 485.866 475.59C485.465 475.375 484.969 475.301 484.378 475.37C483.901 475.425 483.497 475.578 483.166 475.83C482.842 476.072 482.585 476.397 482.394 476.804C482.211 477.202 482.093 477.666 482.04 478.197C481.986 478.727 481.996 479.308 482.07 479.938L482.126 480.423C482.189 480.973 482.321 481.474 482.521 481.926C482.729 482.377 482.999 482.759 483.33 483.073C483.669 483.378 484.055 483.604 484.49 483.75C484.932 483.887 485.42 483.925 485.953 483.863C486.624 483.785 487.215 483.585 487.727 483.264C488.246 482.933 488.677 482.486 489.021 481.922L490.828 483.408C490.6 483.844 490.273 484.275 489.848 484.702C489.43 485.127 488.907 485.495 488.28 485.805C487.651 486.107 486.909 486.308 486.052 486.408ZM500.292 480.873C500.26 480.598 500.158 480.36 499.988 480.159C499.817 479.957 499.519 479.791 499.094 479.66C498.676 479.52 498.074 479.414 497.288 479.341C496.592 479.274 495.944 479.165 495.345 479.013C494.746 478.862 494.222 478.656 493.774 478.397C493.325 478.129 492.959 477.799 492.676 477.406C492.4 477.004 492.23 476.524 492.165 475.966C492.102 475.424 492.16 474.901 492.339 474.397C492.518 473.885 492.808 473.421 493.21 473.006C493.612 472.583 494.12 472.229 494.734 471.944C495.347 471.652 496.054 471.46 496.854 471.367C497.97 471.237 498.949 471.308 499.791 471.579C500.642 471.849 501.319 472.279 501.821 472.868C502.323 473.448 502.619 474.135 502.711 474.927L499.51 475.298C499.47 474.951 499.352 474.645 499.158 474.381C498.971 474.116 498.707 473.917 498.364 473.785C498.02 473.644 497.601 473.603 497.108 473.66C496.663 473.711 496.296 473.828 496.006 474.009C495.723 474.189 495.519 474.405 495.393 474.658C495.266 474.91 495.219 475.177 495.252 475.46C495.277 475.671 495.339 475.856 495.44 476.016C495.547 476.168 495.706 476.301 495.916 476.416C496.126 476.531 496.403 476.625 496.748 476.7C497.1 476.774 497.529 476.835 498.035 476.883C499.035 476.963 499.918 477.123 500.683 477.362C501.455 477.592 502.078 477.946 502.551 478.424C503.025 478.901 503.309 479.548 503.403 480.365C503.471 480.947 503.407 481.495 503.213 482.009C503.018 482.515 502.702 482.973 502.266 483.384C501.831 483.795 501.293 484.14 500.654 484.419C500.013 484.69 499.277 484.874 498.444 484.97C497.24 485.11 496.196 485.014 495.314 484.682C494.431 484.342 493.736 483.866 493.231 483.252C492.725 482.631 492.43 481.961 492.347 481.241L495.414 480.886C495.498 481.392 495.682 481.784 495.969 482.062C496.255 482.341 496.596 482.526 496.992 482.62C497.395 482.704 497.811 482.721 498.239 482.672C498.724 482.615 499.125 482.503 499.441 482.336C499.757 482.16 499.986 481.949 500.13 481.703C500.272 481.449 500.326 481.172 500.292 480.873ZM517.984 467.282L514.689 482.841L511.16 483.25L515.709 464.83L517.965 464.569L517.984 467.282ZM523.929 481.769L517.136 467.381L516.522 464.736L518.789 464.473L527.469 481.359L523.929 481.769ZM522.938 475.236L523.243 477.867L513.772 478.966L513.467 476.334L522.938 475.236ZM528.998 479.596C528.942 479.111 529.06 478.684 529.353 478.314C529.646 477.944 530.075 477.726 530.641 477.661C531.207 477.595 531.675 477.709 532.045 478.002C532.415 478.295 532.628 478.684 532.684 479.169C532.739 479.646 532.62 480.069 532.327 480.439C532.034 480.801 531.604 481.015 531.038 481.08C530.472 481.146 530.004 481.036 529.636 480.751C529.266 480.458 529.053 480.073 528.998 479.596ZM553.43 475.694L553.734 478.313L544.858 479.343L544.554 476.723L553.43 475.694ZM543.817 461.571L545.864 479.226L542.53 479.612L540.482 461.957L543.817 461.571ZM557.596 464.569L559.118 477.689L555.904 478.062L554.383 464.941L557.596 464.569ZM553.767 461.535C553.711 461.058 553.827 460.643 554.114 460.291C554.409 459.937 554.835 459.728 555.393 459.663C555.951 459.598 556.41 459.705 556.77 459.983C557.138 460.26 557.349 460.636 557.404 461.113C557.459 461.582 557.339 461.993 557.044 462.347C556.757 462.7 556.335 462.909 555.777 462.973C555.219 463.038 554.756 462.932 554.388 462.655C554.028 462.377 553.821 462.004 553.767 461.535ZM564.153 466.537L565.362 476.965L562.161 477.336L560.64 464.216L563.659 463.866L564.153 466.537ZM564.074 469.987L563.092 470.101C562.986 469.187 562.998 468.334 563.127 467.54C563.264 466.746 563.518 466.041 563.889 465.424C564.259 464.8 564.745 464.293 565.347 463.904C565.957 463.513 566.687 463.269 567.536 463.17C568.126 463.102 568.678 463.128 569.191 463.249C569.704 463.361 570.16 463.583 570.559 463.914C570.965 464.235 571.299 464.68 571.561 465.247C571.823 465.807 572.001 466.495 572.096 467.311L573.111 476.066L569.91 476.437L568.932 468.01C568.861 467.396 568.716 466.925 568.498 466.598C568.288 466.27 568.014 466.056 567.674 465.956C567.334 465.848 566.938 465.82 566.485 465.873C565.984 465.931 565.563 466.082 565.223 466.327C564.889 466.562 564.626 466.867 564.432 467.242C564.246 467.616 564.122 468.035 564.062 468.501C564.009 468.966 564.013 469.461 564.074 469.987ZM571.984 468.467L570.69 468.863C570.603 468.038 570.626 467.252 570.761 466.508C570.895 465.755 571.141 465.083 571.498 464.493C571.863 463.893 572.343 463.404 572.938 463.023C573.54 462.634 574.257 462.391 575.09 462.294C575.737 462.219 576.329 462.245 576.868 462.371C577.414 462.488 577.896 462.723 578.314 463.076C578.731 463.421 579.073 463.893 579.339 464.493C579.613 465.092 579.802 465.84 579.906 466.738L580.883 475.165L577.658 475.539L576.679 467.099C576.605 466.461 576.46 465.982 576.242 465.663C576.033 465.343 575.76 465.137 575.421 465.046C575.082 464.946 574.694 464.921 574.257 464.972C573.813 465.023 573.435 465.153 573.123 465.361C572.818 465.56 572.57 465.819 572.377 466.136C572.193 466.452 572.066 466.811 571.998 467.212C571.937 467.604 571.932 468.023 571.984 468.467ZM590.661 471.205L589.959 465.154C589.908 464.709 589.786 464.334 589.595 464.029C589.404 463.723 589.141 463.5 588.805 463.358C588.469 463.217 588.058 463.175 587.573 463.231C587.145 463.281 586.777 463.397 586.471 463.58C586.173 463.762 585.954 463.996 585.815 464.283C585.675 464.561 585.625 464.87 585.665 465.21L582.451 465.582C582.388 465.041 582.458 464.512 582.661 463.997C582.862 463.474 583.179 462.995 583.612 462.56C584.052 462.115 584.595 461.745 585.241 461.449C585.894 461.152 586.642 460.955 587.482 460.857C588.477 460.742 589.382 460.809 590.197 461.059C591.02 461.299 591.692 461.729 592.215 462.349C592.745 462.967 593.069 463.786 593.187 464.804L593.851 470.528C593.927 471.182 594.033 471.739 594.168 472.199C594.31 472.649 594.486 473.035 594.695 473.354L594.719 473.561L591.457 473.939C591.265 473.625 591.099 473.218 590.959 472.719C590.818 472.211 590.719 471.706 590.661 471.205ZM590.506 465.951L590.751 467.852L588.726 468.086C588.225 468.145 587.791 468.248 587.423 468.397C587.054 468.538 586.76 468.72 586.54 468.942C586.319 469.156 586.163 469.404 586.073 469.685C585.982 469.957 585.955 470.259 585.994 470.591C586.031 470.914 586.138 471.197 586.313 471.439C586.497 471.679 586.739 471.86 587.04 471.981C587.348 472.093 587.695 472.126 588.083 472.081C588.649 472.016 589.129 471.845 589.523 471.57C589.917 471.287 590.211 470.966 590.407 470.607C590.603 470.249 590.692 469.919 590.673 469.618L591.755 470.893C591.681 471.238 591.552 471.609 591.368 472.007C591.185 472.406 590.934 472.787 590.616 473.152C590.298 473.516 589.901 473.833 589.424 474.101C588.947 474.369 588.377 474.542 587.714 474.619C586.865 474.717 586.086 474.635 585.375 474.374C584.665 474.112 584.082 473.709 583.625 473.163C583.169 472.618 582.897 471.97 582.81 471.218C582.729 470.523 582.787 469.893 582.984 469.33C583.181 468.766 583.513 468.273 583.98 467.85C584.446 467.419 585.044 467.067 585.775 466.794C586.512 466.512 587.37 466.314 588.348 466.201L590.506 465.951Z" fill="white"/>
<path d="M289.681 453.838L290.025 456.809C290.183 458.167 290.18 459.343 290.016 460.337C289.853 461.33 289.548 462.164 289.102 462.839C288.655 463.505 288.089 464.026 287.403 464.4C286.716 464.766 285.932 465.001 285.051 465.103C284.348 465.184 283.683 465.171 283.056 465.064C282.428 464.948 281.85 464.729 281.321 464.405C280.799 464.072 280.329 463.627 279.912 463.069C279.503 462.51 279.158 461.825 278.875 461.014C278.601 460.202 278.401 459.254 278.275 458.171L277.931 455.2C277.773 453.842 277.777 452.67 277.941 451.685C278.113 450.698 278.423 449.871 278.87 449.205C279.317 448.539 279.884 448.027 280.572 447.668C281.259 447.302 282.042 447.068 282.924 446.965C283.635 446.883 284.3 446.896 284.919 447.004C285.546 447.112 286.12 447.328 286.641 447.653C287.169 447.968 287.637 448.405 288.046 448.964C288.454 449.515 288.795 450.196 289.07 451.008C289.351 451.811 289.555 452.755 289.681 453.838ZM286.874 457.616L286.427 453.76C286.349 453.081 286.24 452.496 286.101 452.004C285.969 451.503 285.81 451.083 285.623 450.745C285.436 450.406 285.221 450.14 284.977 449.947C284.733 449.746 284.463 449.609 284.168 449.537C283.873 449.465 283.556 449.448 283.216 449.488C282.796 449.536 282.43 449.665 282.118 449.873C281.805 450.073 281.556 450.364 281.371 450.746C281.186 451.128 281.067 451.621 281.014 452.225C280.969 452.82 280.994 453.538 281.092 454.379L281.539 458.235C281.618 458.914 281.723 459.504 281.855 460.005C281.995 460.505 282.159 460.928 282.346 461.275C282.542 461.621 282.759 461.899 282.996 462.109C283.241 462.31 283.511 462.451 283.807 462.531C284.102 462.604 284.419 462.62 284.759 462.581C285.187 462.531 285.553 462.402 285.857 462.195C286.169 461.987 286.417 461.688 286.601 461.298C286.784 460.9 286.898 460.399 286.943 459.796C286.995 459.184 286.972 458.457 286.874 457.616ZM295.613 455.399L292.982 455.077L292.931 446.051L302.644 444.924L302.952 447.58L295.895 448.398L295.912 452.575C296.145 452.392 296.491 452.196 296.95 451.987C297.416 451.769 297.952 451.625 298.559 451.555C299.399 451.457 300.167 451.508 300.862 451.706C301.556 451.895 302.163 452.218 302.682 452.674C303.21 453.129 303.634 453.711 303.954 454.419C304.281 455.119 304.498 455.929 304.604 456.851C304.698 457.659 304.665 458.433 304.505 459.173C304.352 459.903 304.065 460.571 303.644 461.177C303.222 461.775 302.661 462.274 301.962 462.675C301.262 463.067 300.415 463.321 299.42 463.437C298.669 463.524 297.932 463.498 297.212 463.361C296.499 463.214 295.842 462.958 295.243 462.594C294.642 462.221 294.14 461.739 293.735 461.146C293.339 460.553 293.077 459.851 292.95 459.038L296.115 458.671C296.234 459.206 296.433 459.65 296.712 460.003C296.99 460.355 297.331 460.611 297.735 460.769C298.146 460.926 298.607 460.975 299.116 460.916C299.577 460.862 299.963 460.732 300.275 460.523C300.593 460.306 300.844 460.027 301.025 459.687C301.207 459.346 301.326 458.955 301.381 458.515C301.437 458.074 301.435 457.599 301.376 457.09C301.319 456.597 301.206 456.155 301.038 455.765C300.869 455.367 300.641 455.033 300.356 454.763C300.071 454.493 299.729 454.299 299.33 454.181C298.94 454.063 298.494 454.032 297.993 454.091C297.322 454.168 296.816 454.329 296.476 454.574C296.143 454.817 295.856 455.092 295.613 455.399ZM319.078 454.386L319.37 456.908L306.65 458.383L306.292 456.458L312.405 443.792L314.964 443.496L312.743 448.509L309.486 455.498L319.078 454.386ZM315.679 443.413L317.726 461.068L314.513 461.441L312.466 443.785L315.679 443.413ZM328.6 441.767L329.037 441.716L329.336 444.299L329.13 444.323C328.152 444.436 327.309 444.686 326.6 445.071C325.899 445.456 325.333 445.947 324.903 446.546C324.48 447.136 324.185 447.813 324.02 448.578C323.854 449.334 323.821 450.145 323.921 451.01L324.253 453.872C324.331 454.543 324.468 455.125 324.664 455.618C324.868 456.103 325.115 456.504 325.406 456.823C325.704 457.132 326.033 457.352 326.392 457.482C326.759 457.612 327.149 457.653 327.561 457.605C327.974 457.557 328.336 457.429 328.647 457.221C328.959 457.013 329.215 456.741 329.413 456.407C329.619 456.064 329.759 455.675 329.831 455.24C329.912 454.805 329.923 454.337 329.865 453.835C329.808 453.342 329.694 452.893 329.524 452.486C329.354 452.08 329.133 451.733 328.862 451.445C328.591 451.149 328.271 450.936 327.904 450.806C327.544 450.668 327.145 450.624 326.709 450.675C326.143 450.74 325.653 450.932 325.239 451.25C324.825 451.561 324.512 451.941 324.303 452.391C324.093 452.842 324.003 453.303 324.033 453.774L322.892 453.366C322.852 452.674 322.925 452.027 323.109 451.424C323.301 450.82 323.586 450.279 323.965 449.801C324.352 449.322 324.827 448.931 325.39 448.628C325.961 448.324 326.61 448.13 327.338 448.046C328.178 447.948 328.933 448.024 329.601 448.275C330.268 448.517 330.84 448.889 331.316 449.391C331.8 449.892 332.189 450.49 332.482 451.185C332.775 451.872 332.967 452.611 333.059 453.404C333.157 454.252 333.112 455.061 332.922 455.828C332.741 456.595 332.427 457.282 331.982 457.891C331.536 458.5 330.972 459 330.288 459.39C329.604 459.781 328.813 460.028 327.916 460.132C326.97 460.242 326.101 460.162 325.308 459.894C324.523 459.624 323.827 459.205 323.22 458.637C322.614 458.068 322.12 457.38 321.74 456.572C321.359 455.764 321.112 454.871 320.999 453.893L320.85 452.607C320.69 451.225 320.73 449.918 320.973 448.685C321.215 447.453 321.656 446.349 322.297 445.374C322.944 444.389 323.793 443.586 324.844 442.965C325.893 442.335 327.145 441.936 328.6 441.767ZM346.429 447.257L346.774 450.228C346.931 451.586 346.928 452.762 346.765 453.756C346.602 454.75 346.297 455.584 345.851 456.258C345.404 456.925 344.837 457.445 344.152 457.819C343.465 458.186 342.681 458.42 341.8 458.522C341.097 458.604 340.432 458.591 339.805 458.483C339.177 458.368 338.598 458.148 338.069 457.824C337.547 457.491 337.078 457.046 336.661 456.488C336.252 455.929 335.906 455.244 335.624 454.433C335.349 453.621 335.149 452.674 335.024 451.591L334.679 448.62C334.522 447.262 334.525 446.09 334.689 445.104C334.862 444.117 335.171 443.291 335.619 442.624C336.066 441.958 336.633 441.446 337.32 441.088C338.007 440.721 338.791 440.487 339.672 440.385C340.384 440.302 341.049 440.315 341.667 440.424C342.294 440.531 342.868 440.747 343.389 441.072C343.918 441.388 344.386 441.825 344.795 442.384C345.203 442.934 345.544 443.616 345.818 444.428C346.1 445.231 346.304 446.174 346.429 447.257ZM343.623 451.036L343.176 447.18C343.097 446.501 342.988 445.915 342.849 445.423C342.718 444.923 342.558 444.503 342.372 444.164C342.185 443.825 341.97 443.559 341.726 443.366C341.482 443.165 341.212 443.029 340.917 442.956C340.621 442.884 340.304 442.868 339.965 442.907C339.544 442.956 339.178 443.084 338.866 443.292C338.554 443.492 338.305 443.783 338.12 444.165C337.935 444.547 337.816 445.04 337.763 445.645C337.717 446.24 337.743 446.958 337.841 447.798L338.288 451.654C338.367 452.333 338.472 452.923 338.604 453.424C338.743 453.924 338.907 454.348 339.095 454.694C339.291 455.04 339.507 455.318 339.745 455.529C339.989 455.73 340.259 455.87 340.556 455.951C340.851 456.023 341.168 456.039 341.508 456C341.936 455.95 342.302 455.822 342.606 455.615C342.917 455.406 343.165 455.107 343.35 454.717C343.533 454.319 343.647 453.818 343.692 453.215C343.743 452.603 343.721 451.876 343.623 451.036ZM374.158 451.968L374.451 454.49L362.495 455.877L362.245 453.718L367.261 446.857C367.781 446.108 368.185 445.463 368.475 444.922C368.764 444.38 368.958 443.899 369.057 443.478C369.163 443.048 369.194 442.647 369.151 442.275C369.088 441.734 368.936 441.272 368.696 440.89C368.454 440.5 368.134 440.214 367.736 440.031C367.346 439.847 366.884 439.785 366.35 439.847C365.76 439.916 365.271 440.112 364.882 440.435C364.501 440.75 364.229 441.158 364.066 441.661C363.911 442.162 363.869 442.72 363.941 443.334L360.727 443.707C360.606 442.664 360.739 441.686 361.124 440.773C361.509 439.852 362.124 439.08 362.969 438.457C363.815 437.835 364.86 437.452 366.105 437.307C367.318 437.167 368.368 437.25 369.255 437.556C370.142 437.855 370.846 438.347 371.368 439.032C371.89 439.717 372.21 440.569 372.328 441.587C372.393 442.153 372.365 442.722 372.243 443.293C372.121 443.864 371.921 444.44 371.645 445.021C371.375 445.593 371.042 446.181 370.645 446.784C370.248 447.387 369.8 448.008 369.3 448.648L366.301 452.879L374.158 451.968ZM378.917 445.739L376.287 445.417L376.235 436.391L385.948 435.264L386.256 437.92L379.199 438.738L379.216 442.914C379.449 442.732 379.795 442.536 380.254 442.327C380.72 442.109 381.257 441.965 381.863 441.895C382.704 441.797 383.471 441.848 384.166 442.046C384.86 442.235 385.467 442.558 385.986 443.014C386.514 443.469 386.938 444.051 387.258 444.759C387.585 445.459 387.802 446.269 387.909 447.191C388.002 447.999 387.969 448.773 387.809 449.513C387.656 450.243 387.369 450.911 386.948 451.517C386.526 452.115 385.965 452.614 385.266 453.015C384.566 453.407 383.719 453.661 382.724 453.776C381.973 453.864 381.237 453.838 380.516 453.701C379.803 453.554 379.146 453.298 378.547 452.934C377.947 452.561 377.444 452.079 377.04 451.486C376.643 450.893 376.381 450.19 376.254 449.378L379.419 449.011C379.539 449.546 379.737 449.99 380.016 450.342C380.294 450.695 380.635 450.951 381.039 451.109C381.45 451.266 381.911 451.315 382.42 451.256C382.881 451.202 383.267 451.071 383.579 450.863C383.898 450.646 384.148 450.367 384.33 450.027C384.511 449.686 384.63 449.295 384.685 448.855C384.741 448.414 384.739 447.939 384.68 447.43C384.623 446.937 384.51 446.495 384.342 446.105C384.173 445.707 383.946 445.373 383.66 445.103C383.375 444.833 383.033 444.639 382.634 444.521C382.244 444.403 381.798 444.372 381.297 444.431C380.626 444.508 380.12 444.669 379.78 444.914C379.447 445.157 379.16 445.432 378.917 445.739ZM401.359 440.887L401.703 443.858C401.861 445.216 401.858 446.392 401.695 447.386C401.531 448.38 401.227 449.214 400.781 449.889C400.334 450.555 399.767 451.075 399.081 451.45C398.395 451.816 397.611 452.05 396.73 452.152C396.026 452.234 395.361 452.221 394.734 452.113C394.107 451.998 393.528 451.778 392.999 451.454C392.477 451.122 392.008 450.676 391.591 450.119C391.182 449.56 390.836 448.875 390.554 448.064C390.279 447.252 390.079 446.304 389.954 445.221L389.609 442.25C389.452 440.892 389.455 439.72 389.619 438.734C389.792 437.748 390.101 436.921 390.548 436.255C390.995 435.588 391.563 435.076 392.25 434.718C392.937 434.352 393.721 434.117 394.602 434.015C395.313 433.933 395.978 433.946 396.597 434.054C397.224 434.162 397.798 434.378 398.319 434.702C398.847 435.018 399.316 435.455 399.725 436.014C400.133 436.565 400.474 437.246 400.748 438.058C401.03 438.861 401.233 439.804 401.359 440.887ZM398.553 444.666L398.106 440.81C398.027 440.131 397.918 439.546 397.779 439.054C397.647 438.553 397.488 438.133 397.301 437.794C397.115 437.455 396.899 437.19 396.656 436.997C396.411 436.796 396.141 436.659 395.846 436.587C395.551 436.514 395.234 436.498 394.894 436.537C394.474 436.586 394.108 436.714 393.796 436.923C393.484 437.123 393.235 437.414 393.05 437.796C392.864 438.178 392.745 438.671 392.693 439.275C392.647 439.87 392.673 440.588 392.77 441.429L393.218 445.285C393.296 445.964 393.402 446.554 393.533 447.055C393.673 447.554 393.837 447.978 394.025 448.325C394.221 448.671 394.437 448.949 394.674 449.159C394.919 449.36 395.189 449.501 395.485 449.581C395.78 449.653 396.098 449.67 396.437 449.63C396.866 449.581 397.232 449.452 397.535 449.245C397.847 449.037 398.095 448.738 398.279 448.348C398.463 447.949 398.577 447.449 398.621 446.846C398.673 446.233 398.65 445.507 398.553 444.666ZM407.372 440.288L409.179 440.079C409.818 440.005 410.331 439.835 410.718 439.569C411.112 439.294 411.387 438.95 411.544 438.539C411.709 438.118 411.761 437.65 411.701 437.132C411.642 436.623 411.498 436.193 411.269 435.843C411.039 435.484 410.722 435.226 410.319 435.068C409.922 434.901 409.433 434.851 408.851 434.919C408.382 434.973 407.961 435.116 407.586 435.348C407.22 435.579 406.939 435.882 406.745 436.257C406.558 436.622 406.492 437.044 406.548 437.521L403.334 437.893C403.224 436.94 403.377 436.074 403.795 435.296C404.22 434.51 404.841 433.86 405.658 433.347C406.475 432.835 407.417 432.517 408.485 432.393C409.649 432.258 410.69 432.334 411.608 432.621C412.533 432.898 413.281 433.381 413.852 434.068C414.432 434.755 414.785 435.648 414.913 436.747C414.974 437.273 414.909 437.813 414.72 438.367C414.537 438.913 414.232 439.423 413.804 439.899C413.382 440.366 412.843 440.768 412.186 441.107C411.536 441.436 410.771 441.652 409.89 441.754L407.574 442.022L407.372 440.288ZM407.659 442.762L407.461 441.052L409.777 440.784C410.771 440.668 411.646 440.686 412.401 440.836C413.163 440.977 413.806 441.23 414.332 441.595C414.857 441.952 415.264 442.392 415.554 442.916C415.852 443.438 416.038 444.015 416.111 444.645C416.207 445.47 416.139 446.223 415.906 446.906C415.673 447.58 415.304 448.172 414.797 448.681C414.299 449.189 413.692 449.604 412.975 449.924C412.258 450.237 411.467 450.444 410.602 450.544C409.85 450.631 409.107 450.615 408.372 450.495C407.644 450.367 406.973 450.129 406.36 449.782C405.745 449.428 405.235 448.954 404.831 448.362C404.425 447.762 404.174 447.041 404.076 446.201L407.29 445.828C407.346 446.313 407.513 446.732 407.792 447.085C408.078 447.436 408.445 447.697 408.89 447.867C409.343 448.027 409.836 448.076 410.37 448.015C410.96 447.946 411.453 447.783 411.849 447.524C412.252 447.256 412.544 446.91 412.724 446.488C412.904 446.058 412.961 445.564 412.896 445.006C412.82 444.343 412.632 443.82 412.334 443.437C412.035 443.053 411.64 442.792 411.149 442.652C410.666 442.512 410.105 442.479 409.466 442.553L407.659 442.762ZM426.092 430.462L426.528 430.411L426.828 432.994L426.622 433.018C425.643 433.131 424.8 433.381 424.091 433.766C423.39 434.15 422.824 434.642 422.394 435.241C421.971 435.831 421.677 436.508 421.511 437.273C421.345 438.029 421.312 438.84 421.412 439.705L421.744 442.567C421.822 443.238 421.959 443.82 422.156 444.313C422.359 444.797 422.607 445.199 422.897 445.517C423.196 445.827 423.524 446.047 423.883 446.177C424.251 446.307 424.64 446.348 425.053 446.3C425.465 446.252 425.827 446.124 426.139 445.916C426.45 445.707 426.706 445.436 426.905 445.102C427.111 444.758 427.25 444.37 427.322 443.935C427.403 443.5 427.414 443.031 427.356 442.53C427.299 442.037 427.185 441.587 427.015 441.181C426.845 440.775 426.625 440.428 426.354 440.14C426.082 439.843 425.762 439.631 425.395 439.501C425.035 439.363 424.636 439.319 424.2 439.369C423.634 439.435 423.144 439.627 422.731 439.945C422.316 440.256 422.004 440.636 421.794 441.086C421.584 441.537 421.494 441.998 421.524 442.469L420.383 442.061C420.344 441.369 420.416 440.722 420.6 440.119C420.792 439.515 421.078 438.974 421.456 438.495C421.843 438.016 422.318 437.625 422.881 437.323C423.452 437.019 424.101 436.825 424.829 436.74C425.67 436.643 426.424 436.719 427.092 436.969C427.759 437.212 428.331 437.584 428.807 438.086C429.291 438.586 429.68 439.185 429.973 439.88C430.266 440.567 430.458 441.306 430.55 442.098C430.649 442.947 430.603 443.755 430.413 444.523C430.232 445.289 429.919 445.977 429.473 446.586C429.027 447.195 428.463 447.694 427.779 448.085C427.095 448.476 426.305 448.723 425.407 448.827C424.461 448.937 423.592 448.857 422.799 448.589C422.014 448.319 421.318 447.9 420.712 447.332C420.105 446.763 419.611 446.075 419.231 445.267C418.85 444.459 418.604 443.566 418.49 442.588L418.341 441.302C418.181 439.92 418.222 438.613 418.464 437.38C418.706 436.148 419.147 435.044 419.788 434.068C420.436 433.084 421.285 432.281 422.335 431.659C423.384 431.03 424.637 430.631 426.092 430.462ZM446.957 432.786L449.781 436.686L451.674 432.239L455.154 431.835L452.044 438.709L456.833 444.937L453.353 445.341L450.336 441.254L448.321 445.924L444.841 446.328L448.066 439.17L443.489 433.188L446.957 432.786ZM459.52 431.329L462.344 435.229L464.236 430.782L467.717 430.378L464.606 437.252L469.396 443.48L465.916 443.884L462.898 439.797L460.883 444.467L457.403 444.871L460.629 437.713L456.052 431.731L459.52 431.329ZM472.082 429.872L474.906 433.772L476.799 429.325L480.279 428.922L477.168 435.795L481.958 442.023L478.478 442.427L475.46 438.341L473.446 443.011L469.966 443.414L473.191 436.257L468.614 430.274L472.082 429.872ZM484.644 428.415L487.468 432.315L489.361 427.868L492.841 427.465L489.73 434.339L494.52 440.567L491.04 440.97L488.023 436.884L486.008 441.554L482.528 441.957L485.753 434.8L481.176 428.818L484.644 428.415ZM497.206 426.959L500.03 430.859L501.923 426.412L505.404 426.008L502.293 432.882L507.083 439.11L503.602 439.514L500.585 435.427L498.57 440.097L495.09 440.501L498.315 433.343L493.739 427.361L497.206 426.959ZM528.321 423.351L531.145 427.251L533.038 422.804L536.518 422.4L533.407 429.274L538.197 435.502L534.717 435.905L531.7 431.819L529.685 436.489L526.205 436.893L529.43 429.735L524.853 423.753L528.321 423.351ZM540.884 421.894L543.708 425.794L545.6 421.347L549.081 420.943L545.97 427.817L550.76 434.045L547.28 434.449L544.262 430.362L542.247 435.032L538.767 435.436L541.993 428.278L537.416 422.296L540.884 421.894ZM553.446 420.437L556.27 424.337L558.163 419.89L561.643 419.487L558.532 426.36L563.322 432.588L559.842 432.992L556.824 428.906L554.81 433.576L551.33 433.979L554.555 426.822L549.978 420.839L553.446 420.437ZM566.008 418.98L568.832 422.88L570.725 418.433L574.205 418.03L571.094 424.904L575.884 431.132L572.404 431.535L569.386 427.449L567.372 432.119L563.892 432.522L567.117 425.365L562.54 419.383L566.008 418.98ZM578.57 417.524L581.394 421.424L583.287 416.977L586.767 416.573L583.657 423.447L588.447 429.675L584.966 430.079L581.949 425.992L579.934 430.662L576.454 431.066L579.679 423.908L575.102 417.926L578.57 417.524Z" fill="white"/>
<path d="M802.628 575.456L802.954 578.268C803.095 579.487 803.087 580.555 802.93 581.47C802.771 582.378 802.479 583.143 802.054 583.765C801.635 584.379 801.107 584.858 800.468 585.204C799.83 585.549 799.102 585.769 798.284 585.864C797.629 585.94 797.01 585.929 796.426 585.831C795.841 585.725 795.301 585.52 794.806 585.216C794.318 584.911 793.879 584.506 793.489 584.001C793.105 583.487 792.784 582.861 792.525 582.123C792.266 581.384 792.079 580.524 791.966 579.542L791.64 576.731C791.498 575.511 791.507 574.451 791.667 573.551C791.832 572.642 792.125 571.881 792.544 571.267C792.97 570.652 793.502 570.176 794.142 569.838C794.78 569.493 795.508 569.272 796.326 569.178C796.981 569.102 797.597 569.117 798.174 569.223C798.758 569.321 799.298 569.519 799.792 569.816C800.286 570.113 800.725 570.518 801.109 571.031C801.491 571.537 801.812 572.159 802.071 572.898C802.329 573.629 802.515 574.482 802.628 575.456ZM799.779 579.065L799.354 575.395C799.285 574.808 799.192 574.298 799.075 573.867C798.964 573.435 798.828 573.074 798.666 572.784C798.504 572.486 798.318 572.252 798.11 572.08C797.901 571.908 797.673 571.791 797.425 571.73C797.176 571.668 796.907 571.654 796.617 571.688C796.253 571.73 795.937 571.838 795.671 572.012C795.412 572.185 795.204 572.439 795.047 572.774C794.889 573.101 794.788 573.528 794.743 574.053C794.705 574.57 794.729 575.193 794.813 575.922L795.239 579.592C795.307 580.179 795.397 580.693 795.508 581.132C795.626 581.571 795.768 581.942 795.931 582.248C796.101 582.544 796.287 582.783 796.489 582.963C796.697 583.135 796.926 583.252 797.174 583.313C797.43 583.374 797.703 583.388 797.993 583.354C798.35 583.313 798.658 583.205 798.916 583.032C799.182 582.85 799.393 582.592 799.55 582.258C799.714 581.914 799.814 581.481 799.851 580.956C799.889 580.432 799.864 579.802 799.779 579.065ZM812.308 567.381L812.776 567.327L813.074 569.892L812.884 569.914C812.036 570.013 811.296 570.227 810.663 570.556C810.031 570.886 809.511 571.312 809.104 571.834C808.704 572.347 808.419 572.946 808.25 573.629C808.088 574.311 808.054 575.057 808.148 575.868L808.461 578.567C808.528 579.148 808.643 579.654 808.807 580.087C808.976 580.512 809.186 580.861 809.437 581.134C809.693 581.398 809.979 581.587 810.294 581.701C810.608 581.808 810.951 581.84 811.322 581.797C811.672 581.756 811.979 581.645 812.245 581.464C812.518 581.281 812.739 581.045 812.909 580.754C813.085 580.454 813.204 580.116 813.266 579.74C813.334 579.355 813.343 578.943 813.292 578.505C813.241 578.066 813.139 577.667 812.984 577.308C812.837 576.948 812.643 576.647 812.404 576.403C812.164 576.152 811.887 575.969 811.572 575.855C811.257 575.741 810.914 575.705 810.542 575.748C810.036 575.807 809.604 575.978 809.245 576.261C808.892 576.535 808.629 576.867 808.456 577.257C808.282 577.646 808.211 578.042 808.243 578.446L807.2 577.933C807.156 577.358 807.212 576.802 807.368 576.263C807.532 575.724 807.784 575.235 808.125 574.796C808.473 574.349 808.909 573.982 809.433 573.695C809.957 573.401 810.564 573.213 811.256 573.133C812.015 573.045 812.697 573.113 813.303 573.337C813.917 573.559 814.447 573.901 814.892 574.362C815.338 574.823 815.695 575.373 815.965 576.013C816.236 576.652 816.414 577.347 816.501 578.099C816.593 578.887 816.547 579.635 816.366 580.342C816.191 581.048 815.892 581.682 815.467 582.243C815.05 582.804 814.523 583.265 813.886 583.625C813.249 583.985 812.515 584.214 811.682 584.31C810.819 584.41 810.016 584.345 809.274 584.115C808.537 583.876 807.883 583.5 807.311 582.986C806.739 582.472 806.27 581.836 805.903 581.08C805.544 580.323 805.31 579.475 805.201 578.538L805.056 577.289C804.905 575.98 804.955 574.761 805.209 573.631C805.469 572.493 805.913 571.484 806.542 570.605C807.171 569.718 807.969 568.996 808.937 568.439C809.905 567.882 811.028 567.529 812.308 567.381ZM824.23 566.168L820.318 584.496L817.931 584.773L821.843 566.445L824.23 566.168ZM838.339 578.449L838.63 580.959L827.519 582.248L827.271 580.106L831.872 573.863C832.332 573.214 832.688 572.649 832.942 572.167C833.194 571.678 833.366 571.247 833.459 570.875C833.558 570.494 833.588 570.14 833.55 569.813C833.494 569.322 833.363 568.911 833.159 568.581C832.954 568.243 832.68 567.996 832.338 567.839C832.003 567.682 831.605 567.63 831.144 567.684C830.653 567.741 830.243 567.909 829.914 568.188C829.592 568.467 829.362 568.829 829.226 569.274C829.096 569.719 829.063 570.209 829.125 570.744L825.901 571.118C825.789 570.151 825.917 569.24 826.285 568.383C826.652 567.519 827.228 566.8 828.013 566.227C828.797 565.646 829.766 565.289 830.919 565.155C832.057 565.023 833.038 565.098 833.862 565.379C834.692 565.652 835.348 566.111 835.83 566.756C836.319 567.393 836.618 568.187 836.728 569.139C836.79 569.675 836.766 570.209 836.654 570.742C836.542 571.267 836.355 571.802 836.094 572.344C835.839 572.879 835.519 573.429 835.132 573.994C834.745 574.558 834.312 575.148 833.833 575.761L831.378 579.256L838.339 578.449ZM851.066 575.006C851.184 576.025 851.046 576.912 850.651 577.666C850.255 578.413 849.661 579.013 848.87 579.467C848.085 579.912 847.168 580.195 846.119 580.317C845.071 580.438 844.11 580.373 843.236 580.12C842.362 579.859 841.643 579.411 841.079 578.776C840.515 578.133 840.173 577.302 840.055 576.283C839.976 575.599 840.042 574.966 840.253 574.383C840.464 573.794 840.792 573.273 841.237 572.822C841.689 572.363 842.237 571.99 842.882 571.704C843.526 571.411 844.243 571.219 845.031 571.127C846.087 571.005 847.053 571.081 847.929 571.356C848.805 571.632 849.521 572.08 850.075 572.702C850.63 573.323 850.96 574.091 851.066 575.006ZM847.806 575.169C847.748 574.671 847.602 574.255 847.367 573.92C847.139 573.577 846.843 573.329 846.478 573.175C846.114 573.022 845.705 572.971 845.251 573.024C844.797 573.076 844.411 573.219 844.091 573.452C843.771 573.685 843.536 573.995 843.385 574.382C843.24 574.76 843.197 575.199 843.255 575.697C843.312 576.188 843.454 576.601 843.681 576.937C843.916 577.271 844.216 577.515 844.58 577.669C844.951 577.814 845.367 577.86 845.828 577.807C846.289 577.753 846.677 577.614 846.99 577.39C847.309 577.156 847.538 576.851 847.675 576.473C847.819 576.095 847.863 575.66 847.806 575.169ZM849.852 567.561C849.948 568.386 849.813 569.144 849.449 569.835C849.083 570.518 848.531 571.083 847.791 571.531C847.059 571.977 846.195 572.258 845.198 572.374C844.194 572.49 843.281 572.415 842.459 572.149C841.637 571.883 840.969 571.459 840.457 570.877C839.944 570.289 839.64 569.582 839.544 568.756C839.43 567.774 839.554 566.923 839.915 566.203C840.283 565.475 840.833 564.891 841.566 564.452C842.307 564.011 843.171 563.734 844.161 563.619C845.165 563.503 846.074 563.575 846.888 563.834C847.709 564.093 848.378 564.536 848.896 565.162C849.419 565.779 849.738 566.579 849.852 567.561ZM846.656 568.078C846.605 567.64 846.483 567.269 846.29 566.968C846.096 566.659 845.843 566.432 845.533 566.287C845.229 566.141 844.869 566.092 844.453 566.141C844.051 566.187 843.715 566.313 843.445 566.517C843.182 566.721 842.992 566.996 842.874 567.341C842.762 567.678 842.732 568.074 842.785 568.527C842.836 568.966 842.955 569.344 843.143 569.662C843.337 569.971 843.59 570.201 843.901 570.354C844.213 570.506 844.573 570.558 844.982 570.511C845.391 570.464 845.726 570.33 845.987 570.112C846.256 569.892 846.446 569.61 846.556 569.266C846.674 568.913 846.707 568.517 846.656 568.078Z" fill="white"/>
<ellipse cx="756.303" cy="302.985" rx="32.7866" ry="32.0417" transform="rotate(-6.61454 756.303 302.985)" fill="#1FEFE3"/>
<ellipse cx="787.855" cy="298.43" rx="32.7866" ry="32.0417" transform="rotate(-6.61454 787.855 298.43)" fill="#288484"/>
<path d="M345.25 625.858C345.034 624.518 344.687 623.228 344.223 622.001C343.947 621.266 343.629 620.554 343.272 619.867C341.479 616.409 338.717 613.572 335.382 611.676C333.195 610.432 330.762 609.593 328.194 609.248C326.631 609.037 325.019 609.01 323.382 609.185C321.744 609.36 320.175 609.728 318.692 610.265C316.255 611.146 314.055 612.481 312.181 614.159C309.322 616.719 307.223 620.075 306.203 623.835C306 624.582 305.839 625.345 305.724 626.121C305.531 627.419 305.465 628.753 305.537 630.108C305.556 630.471 305.585 630.835 305.624 631.2C305.664 631.576 305.714 631.948 305.775 632.317C305.988 633.618 306.323 634.871 306.768 636.066C307.042 636.8 307.356 637.513 307.71 638.2C309.501 641.693 312.279 644.557 315.639 646.467C317.825 647.71 320.258 648.55 322.827 648.895C324.389 649.106 326.001 649.133 327.639 648.958C329.276 648.783 330.846 648.415 332.328 647.878C334.765 646.997 336.966 645.662 338.839 643.984C341.719 641.406 343.827 638.019 344.84 634.227C345.04 633.479 345.196 632.717 345.308 631.942C345.49 630.679 345.553 629.383 345.485 628.067C345.466 627.694 345.437 627.319 345.397 626.943C345.358 626.578 345.309 626.216 345.25 625.858Z" fill="#288484"/>
<path d="M319.397 628.175L324.055 622.322C324.445 621.833 324.368 621.115 323.883 620.718C323.399 620.322 322.69 620.398 322.3 620.888L317.642 626.741C317.252 627.23 317.329 627.948 317.814 628.345C318.298 628.741 319.007 628.665 319.397 628.175Z" fill="white"/>
<path d="M331.952 628.778L327.294 634.631C326.904 635.121 326.981 635.839 327.466 636.235C327.95 636.631 328.659 636.555 329.049 636.066L333.707 630.213C334.097 629.723 334.02 629.005 333.535 628.609C333.051 628.213 332.342 628.289 331.952 628.778Z" fill="white"/>
<path d="M331.546 619.372L318.136 636.22C317.747 636.71 317.823 637.428 318.308 637.824C318.793 638.22 319.501 638.144 319.891 637.655L333.301 620.806C333.691 620.316 333.614 619.598 333.129 619.202C332.645 618.806 331.936 618.882 331.546 619.372Z" fill="white"/>
<path d="M360.941 612.17L366.708 611.553L369.543 638.042L363.776 638.659L360.941 612.17ZM373.03 616.951L378.518 616.364L378.859 619.546C380.209 616.88 382.264 615.4 385.021 615.105C386.585 614.937 387.951 615.166 389.118 615.792C390.308 616.389 391.227 617.337 391.876 618.635C392.648 617.077 393.568 615.906 394.637 615.121C395.73 614.307 397.019 613.82 398.504 613.661C400.705 613.426 402.486 613.906 403.848 615.101C405.233 616.267 406.05 618.016 406.3 620.35L407.756 633.952L402.148 634.552L400.786 621.825C400.672 620.764 400.319 619.971 399.726 619.444C399.157 618.888 398.435 618.657 397.56 618.751C396.473 618.867 395.514 619.426 394.682 620.427C393.851 621.427 393.285 622.655 392.984 624.108L394.193 635.404L388.585 636.004L387.223 623.277C387.113 622.242 386.759 621.449 386.164 620.896C385.568 620.343 384.833 620.113 383.958 620.207C382.977 620.312 382.089 620.782 381.293 621.618C380.521 622.425 379.941 623.52 379.553 624.902L380.83 636.834L375.222 637.434L373.03 616.951ZM418.926 633.36C416.805 633.587 415.025 632.866 413.585 631.196C412.146 629.526 411.261 627.14 410.929 624.038C410.526 620.273 411.174 617.307 412.873 615.141C414.569 612.948 417.207 611.66 420.787 611.277C422.802 611.061 425.196 611.127 427.968 611.473L430.118 631.559L424.788 632.129L424.559 628.855L424.4 628.872C423.844 630.192 423.097 631.237 422.161 632.008C421.25 632.776 420.172 633.227 418.926 633.36ZM419.596 628.34C420.418 628.252 421.18 627.728 421.881 626.768C422.583 625.808 423.201 624.562 423.734 623.03L423.019 616.348C422.145 616.2 421.284 616.172 420.435 616.262C418.844 616.433 417.696 617.105 416.99 618.28C416.311 619.453 416.085 621.099 416.312 623.221C416.491 624.891 416.871 626.191 417.454 627.121C418.033 628.025 418.747 628.431 419.596 628.34ZM504.763 624.937C503.649 625.057 502.638 624.749 501.728 624.015C500.847 623.305 500.347 622.393 500.228 621.279C500.106 620.139 500.4 619.129 501.11 618.248C501.844 617.338 502.768 616.824 503.882 616.705C505.022 616.582 506.034 616.89 506.917 617.627C507.798 618.337 508.299 619.262 508.421 620.402C508.54 621.516 508.245 622.513 507.535 623.394C506.827 624.301 505.903 624.815 504.763 624.937Z" fill="white"/>
<path d="M432.439 604.518C433.205 604.409 434.662 604.24 436.81 604.01C438.984 603.777 440.457 603.633 441.229 603.577C443.966 603.338 446.191 603.837 447.906 605.075C449.621 606.313 450.612 608.178 450.879 610.671C451.069 612.447 450.84 614.068 450.192 615.531C449.541 616.969 448.526 618.137 447.148 619.035C445.795 619.931 444.204 620.477 442.375 620.673L439.789 620.949L440.803 630.415L435.274 631.007L432.439 604.518ZM441.634 616.005C442.933 615.866 443.901 615.387 444.537 614.568C445.2 613.746 445.464 612.699 445.327 611.426C445.078 609.093 443.667 608.063 441.095 608.339L438.47 608.62L439.287 616.256L441.634 616.005ZM462.35 628.713C460.229 628.94 458.449 628.218 457.009 626.549C455.57 624.879 454.685 622.493 454.352 619.391C453.95 615.625 454.598 612.66 456.297 610.493C457.993 608.3 460.631 607.012 464.21 606.629C466.226 606.413 468.619 606.479 471.392 606.826L473.542 626.911L468.212 627.482L467.982 624.208L467.823 624.225C467.267 625.545 466.521 626.59 465.584 627.361C464.674 628.128 463.596 628.579 462.35 628.713ZM463.02 623.693C463.842 623.605 464.603 623.081 465.305 622.121C466.007 621.16 466.625 619.914 467.158 618.382L466.443 611.7C465.569 611.553 464.707 611.524 463.859 611.615C462.268 611.785 461.12 612.458 460.414 613.633C459.735 614.805 459.509 616.452 459.736 618.573C459.915 620.244 460.295 621.544 460.878 622.474C461.457 623.377 462.171 623.784 463.02 623.693ZM482.822 634.929C481.602 635.06 480.298 634.904 478.91 634.463L479.252 629.76C480.313 630.156 481.189 630.317 481.878 630.243C482.7 630.155 483.282 629.825 483.622 629.252C483.99 628.676 484.341 627.7 484.677 626.323L474.435 606.178L480.191 605.08L486.653 619.232L489.659 604.469L495.188 603.877C494.041 609.202 492.794 614.458 491.445 619.645C490.122 624.828 489.043 628.403 488.208 630.37C487.607 631.775 486.877 632.846 486.017 633.582C485.186 634.341 484.121 634.79 482.822 634.929Z" fill="#288484"/>
</g>
</g>
<defs>
<filter id="filter0_f_140_66" x="0.638481" y="0.638458" width="1114.99" height="932.655" filterUnits="userSpaceOnUse" color-interpolation-filters="sRGB">
<feFlood flood-opacity="0" result="BackgroundImageFix"/>
<feBlend mode="normal" in="SourceGraphic" in2="BackgroundImageFix" result="shape"/>
<feGaussianBlur stdDeviation="119" result="effect1_foregroundBlur_140_66"/>
</filter>
<filter id="filter1_d_140_66" x="231.044" y="238.38" width="655.449" height="464.89" filterUnits="userSpaceOnUse" color-interpolation-filters="sRGB">
<feFlood flood-opacity="0" result="BackgroundImageFix"/>
<feColorMatrix in="SourceAlpha" type="matrix" values="0 0 0 0 0 0 0 0 0 0 0 0 0 0 0 0 0 0 127 0" result="hardAlpha"/>
<feOffset dy="6"/>
<feGaussianBlur stdDeviation="3"/>
<feComposite in2="hardAlpha" operator="out"/>
<feColorMatrix type="matrix" values="0 0 0 0 0 0 0 0 0 0 0 0 0 0 0 0 0 0 0.7 0"/>
<feBlend mode="normal" in2="BackgroundImageFix" result="effect1_dropShadow_140_66"/>
<feBlend mode="normal" in="SourceGraphic" in2="effect1_dropShadow_140_66" result="shape"/>
</filter>
<linearGradient id="paint0_linear_140_66" x1="478.001" y1="315.643" x2="708.264" y2="759.088" gradientUnits="userSpaceOnUse">
<stop stop-color="#288484"/>
<stop offset="1" stop-color="#4EADEB" stop-opacity="0"/>
</linearGradient>
<linearGradient id="paint1_linear_140_66" x1="744.202" y1="588.73" x2="535.444" y2="396.509" gradientUnits="userSpaceOnUse">
<stop stop-color="#288484"/>
<stop offset="1" stop-color="#FCB25B" stop-opacity="0"/>
</linearGradient>
<linearGradient id="paint2_linear_140_66" x1="292.467" y1="420.361" x2="486.145" y2="226.653" gradientUnits="userSpaceOnUse">
<stop stop-color="#288484"/>
<stop offset="1" stop-color="#B95BE6" stop-opacity="0"/>
</linearGradient>
<linearGradient id="paint3_linear_140_66" x1="426.912" y1="641.089" x2="478.055" y2="485.18" gradientUnits="userSpaceOnUse">
<stop stop-color="#288484"/>
<stop offset="1" stop-color="#F97C59" stop-opacity="0"/>
</linearGradient>
<clipPath id="clip0_140_66">
<rect x="237.044" y="307.839" width="603" height="386" rx="15.7009" transform="rotate(-6.61454 237.044 307.839)" fill="white"/>
</clipPath>
</defs>
</svg>
